<svg xmlns="http://www.w3.org/2000/svg" xmlns:xlink="http://www.w3.org/1999/xlink" width="1000" zoomAndPan="magnify" viewBox="0 0 750 112.499997" height="150" preserveAspectRatio="xMidYMid meet" version="1.0"><defs><g/><clipPath id="89695e4226"><path d="M 1.660156 0 L 748.339844 0 L 748.339844 112.003906 L 1.660156 112.003906 Z M 1.660156 0 " clip-rule="nonzero"/></clipPath><clipPath id="6c4d511ab7"><path d="M 14.109375 17.8125 L 104.457031 17.8125 L 104.457031 93.96875 L 14.109375 93.96875 Z M 14.109375 17.8125 " clip-rule="nonzero"/></clipPath><clipPath id="a732bc20e2"><path d="M 136.136719 17.808594 L 225.738281 17.808594 L 225.738281 93.96875 L 136.136719 93.96875 Z M 136.136719 17.808594 " clip-rule="nonzero"/></clipPath><clipPath id="85c6e35c4c"><path d="M 257.355469 17.808594 L 399.972656 17.808594 L 399.972656 93.96875 L 257.355469 93.96875 Z M 257.355469 17.808594 " clip-rule="nonzero"/></clipPath><clipPath id="97f302e211"><path d="M 431.507812 17.808594 L 574.125 17.808594 L 574.125 93.96875 L 431.507812 93.96875 Z M 431.507812 17.808594 " clip-rule="nonzero"/></clipPath><clipPath id="2663407333"><path d="M 605.660156 17.808594 L 735.582031 17.808594 L 735.582031 93.96875 L 605.660156 93.96875 Z M 605.660156 17.808594 " clip-rule="nonzero"/></clipPath></defs><g clip-path="url(#89695e4226)"><path fill="#ffffff" d="M 1.660156 0 L 748.339844 0 L 748.339844 112.003906 L 1.660156 112.003906 Z M 1.660156 0 " fill-opacity="1" fill-rule="nonzero"/><path fill="#ffffff" d="M 1.660156 0 L 748.339844 0 L 748.339844 112.003906 L 1.660156 112.003906 Z M 1.660156 0 " fill-opacity="1" fill-rule="nonzero"/></g><g clip-path="url(#6c4d511ab7)"><path stroke-linecap="butt" transform="matrix(0.746681, 0, 0, 0.746681, 14.110193, 17.811663)" fill="none" stroke-linejoin="miter" d="M -0.00109515 0.00112109 L 121.32744 0.00112109 L 121.32744 102.287061 L -0.00109515 102.287061 Z M -0.00109515 0.00112109 " stroke="#000000" stroke-width="6" stroke-opacity="1" stroke-miterlimit="4"/></g><g fill="#000000" fill-opacity="1"><g transform="translate(36.627303, 59.622361)"><g><path d="M 2.96875 -8.515625 C 3.269531 -8.515625 3.53125 -8.484375 3.75 -8.421875 C 3.976562 -8.359375 4.242188 -8.269531 4.546875 -8.15625 C 4.785156 -8.050781 4.953125 -8 5.046875 -8 C 5.191406 -8 5.316406 -8.039062 5.421875 -8.125 C 5.523438 -8.207031 5.632812 -8.335938 5.75 -8.515625 L 5.953125 -8.515625 L 6.09375 -5.703125 L 5.875 -5.703125 C 5.613281 -6.378906 5.234375 -6.910156 4.734375 -7.296875 C 4.242188 -7.691406 3.707031 -7.890625 3.125 -7.890625 C 2.769531 -7.890625 2.492188 -7.804688 2.296875 -7.640625 C 2.097656 -7.484375 2 -7.28125 2 -7.03125 C 2 -6.71875 2.144531 -6.453125 2.4375 -6.234375 C 2.738281 -6.023438 3.1875 -5.78125 3.78125 -5.5 C 4.375 -5.226562 4.851562 -4.972656 5.21875 -4.734375 C 5.59375 -4.492188 5.914062 -4.1875 6.1875 -3.8125 C 6.457031 -3.4375 6.59375 -2.976562 6.59375 -2.4375 C 6.59375 -1.9375 6.46875 -1.476562 6.21875 -1.0625 C 5.96875 -0.65625 5.617188 -0.332031 5.171875 -0.09375 C 4.734375 0.132812 4.242188 0.25 3.703125 0.25 C 3.367188 0.25 3.066406 0.210938 2.796875 0.140625 C 2.535156 0.0664062 2.257812 -0.0234375 1.96875 -0.140625 C 1.9375 -0.148438 1.847656 -0.179688 1.703125 -0.234375 C 1.554688 -0.296875 1.4375 -0.328125 1.34375 -0.328125 C 1.125 -0.328125 0.9375 -0.140625 0.78125 0.234375 L 0.625 0.234375 L 0.4375 -2.71875 L 0.625 -2.71875 C 0.9375 -1.96875 1.34375 -1.390625 1.84375 -0.984375 C 2.34375 -0.578125 2.894531 -0.375 3.5 -0.375 C 3.863281 -0.375 4.164062 -0.472656 4.40625 -0.671875 C 4.65625 -0.878906 4.78125 -1.132812 4.78125 -1.4375 C 4.78125 -1.726562 4.6875 -1.960938 4.5 -2.140625 C 4.320312 -2.316406 4.035156 -2.507812 3.640625 -2.71875 C 3.472656 -2.820312 3.316406 -2.90625 3.171875 -2.96875 C 3.023438 -3.03125 2.90625 -3.085938 2.8125 -3.140625 C 2.257812 -3.398438 1.820312 -3.632812 1.5 -3.84375 C 1.175781 -4.050781 0.898438 -4.328125 0.671875 -4.671875 C 0.441406 -5.023438 0.328125 -5.457031 0.328125 -5.96875 C 0.328125 -6.695312 0.570312 -7.300781 1.0625 -7.78125 C 1.5625 -8.269531 2.195312 -8.515625 2.96875 -8.515625 Z M 2.96875 -8.515625 "/></g></g></g><g fill="#000000" fill-opacity="1"><g transform="translate(43.52662, 59.622361)"><g><path d="M 11.125 -8.90625 C 11.125 -8.15625 10.878906 -7.503906 10.390625 -6.953125 C 9.910156 -6.410156 9.257812 -6.039062 8.4375 -5.84375 L 10.859375 -1.875 C 11.171875 -1.363281 11.460938 -0.976562 11.734375 -0.71875 C 12.003906 -0.46875 12.273438 -0.335938 12.546875 -0.328125 L 12.546875 0 L 8.90625 0 L 5.484375 -5.609375 L 4.921875 -5.609375 L 4.921875 -1.859375 C 4.921875 -1.398438 4.984375 -1.0625 5.109375 -0.84375 C 5.242188 -0.625 5.425781 -0.484375 5.65625 -0.421875 C 5.894531 -0.367188 6.253906 -0.335938 6.734375 -0.328125 L 6.734375 0 L 0.34375 0 L 0.34375 -0.328125 C 0.789062 -0.335938 1.128906 -0.375 1.359375 -0.4375 C 1.597656 -0.5 1.773438 -0.640625 1.890625 -0.859375 C 2.003906 -1.085938 2.0625 -1.421875 2.0625 -1.859375 L 2.0625 -10.609375 C 2.0625 -11.148438 1.925781 -11.515625 1.65625 -11.703125 C 1.382812 -11.890625 0.945312 -11.984375 0.34375 -11.984375 L 0.34375 -12.3125 L 6.671875 -12.3125 C 7.992188 -12.3125 9.066406 -12.007812 9.890625 -11.40625 C 10.710938 -10.8125 11.125 -9.976562 11.125 -8.90625 Z M 5.890625 -6.265625 C 6.492188 -6.265625 7.03125 -6.453125 7.5 -6.828125 C 7.976562 -7.210938 8.21875 -7.925781 8.21875 -8.96875 C 8.21875 -10.757812 7.351562 -11.65625 5.625 -11.65625 L 4.921875 -11.65625 L 4.921875 -6.265625 Z M 5.890625 -6.265625 "/></g></g></g><g fill="#000000" fill-opacity="1"><g transform="translate(56.411317, 59.622361)"><g><path d="M 7.28125 -12.578125 C 7.894531 -12.578125 8.421875 -12.519531 8.859375 -12.40625 C 9.304688 -12.289062 9.757812 -12.140625 10.21875 -11.953125 C 10.5625 -11.804688 10.804688 -11.734375 10.953125 -11.734375 C 11.179688 -11.734375 11.347656 -11.800781 11.453125 -11.9375 C 11.566406 -12.070312 11.675781 -12.273438 11.78125 -12.546875 L 12.140625 -12.546875 L 12.140625 -8.375 L 11.78125 -8.375 C 11.394531 -9.476562 10.820312 -10.335938 10.0625 -10.953125 C 9.3125 -11.566406 8.472656 -11.875 7.546875 -11.875 C 6.421875 -11.875 5.546875 -11.34375 4.921875 -10.28125 C 4.296875 -9.21875 3.984375 -7.753906 3.984375 -5.890625 C 3.984375 -3.609375 4.414062 -2.078125 5.28125 -1.296875 C 5.613281 -0.984375 5.976562 -0.75 6.375 -0.59375 C 6.78125 -0.445312 7.171875 -0.375 7.546875 -0.375 C 8.109375 -0.375 8.679688 -0.503906 9.265625 -0.765625 L 9.265625 -3.78125 C 9.265625 -4.519531 8.789062 -4.890625 7.84375 -4.890625 L 7.71875 -4.890625 L 7.71875 -5.21875 L 13.5625 -5.21875 L 13.5625 -4.890625 C 12.613281 -4.890625 12.140625 -4.523438 12.140625 -3.796875 L 12.140625 -0.765625 C 11.535156 -0.441406 10.816406 -0.191406 9.984375 -0.015625 C 9.160156 0.160156 8.320312 0.25 7.46875 0.25 C 6.09375 0.25 4.898438 -0.015625 3.890625 -0.546875 C 2.890625 -1.085938 2.117188 -1.820312 1.578125 -2.75 C 1.046875 -3.6875 0.78125 -4.726562 0.78125 -5.875 C 0.78125 -7.082031 1.070312 -8.195312 1.65625 -9.21875 C 2.238281 -10.25 3.023438 -11.066406 4.015625 -11.671875 C 5.003906 -12.273438 6.09375 -12.578125 7.28125 -12.578125 Z M 7.28125 -12.578125 "/></g></g></g><g fill="#000000" fill-opacity="1"><g transform="translate(70.227873, 59.622361)"><g><path d="M 11 -9.296875 C 11 -8.578125 10.75 -7.972656 10.25 -7.484375 C 9.75 -6.992188 9.03125 -6.660156 8.09375 -6.484375 L 8.09375 -6.453125 C 9.144531 -6.296875 9.976562 -5.9375 10.59375 -5.375 C 11.21875 -4.8125 11.53125 -4.125 11.53125 -3.3125 C 11.53125 -2.625 11.320312 -2.023438 10.90625 -1.515625 C 10.488281 -1.015625 9.9375 -0.632812 9.25 -0.375 C 8.5625 -0.125 7.820312 0 7.03125 0 L 0.265625 0 L 0.265625 -0.328125 C 0.710938 -0.328125 1.046875 -0.359375 1.265625 -0.421875 C 1.492188 -0.484375 1.664062 -0.625 1.78125 -0.84375 C 1.894531 -1.0625 1.953125 -1.398438 1.953125 -1.859375 L 1.953125 -10.4375 C 1.953125 -10.863281 1.898438 -11.1875 1.796875 -11.40625 C 1.703125 -11.625 1.539062 -11.769531 1.3125 -11.84375 C 1.09375 -11.925781 0.78125 -11.972656 0.375 -11.984375 L 0.375 -12.3125 L 6.78125 -12.3125 C 7.425781 -12.3125 8.066406 -12.210938 8.703125 -12.015625 C 9.347656 -11.828125 9.890625 -11.507812 10.328125 -11.0625 C 10.773438 -10.613281 11 -10.023438 11 -9.296875 Z M 5.3125 -6.71875 C 6.289062 -6.71875 6.984375 -6.960938 7.390625 -7.453125 C 7.796875 -7.953125 8 -8.53125 8 -9.1875 C 8 -9.800781 7.816406 -10.363281 7.453125 -10.875 C 7.097656 -11.394531 6.5 -11.65625 5.65625 -11.65625 L 4.828125 -11.65625 L 4.828125 -6.71875 Z M 5.859375 -0.625 C 6.597656 -0.625 7.191406 -0.859375 7.640625 -1.328125 C 8.097656 -1.796875 8.328125 -2.414062 8.328125 -3.1875 C 8.328125 -4 8.078125 -4.679688 7.578125 -5.234375 C 7.078125 -5.785156 6.289062 -6.0625 5.21875 -6.0625 L 4.828125 -6.0625 L 4.828125 -1.828125 C 4.828125 -1.347656 4.910156 -1.023438 5.078125 -0.859375 C 5.242188 -0.703125 5.503906 -0.625 5.859375 -0.625 Z M 5.859375 -0.625 "/></g></g></g><g clip-path="url(#a732bc20e2)"><path stroke-linecap="butt" transform="matrix(0.746681, 0, 0, 0.746681, 136.136251, 17.808205)" fill="none" stroke-linejoin="miter" d="M 0.000626609 0.000520967 L 120.340396 0.000520967 L 120.340396 102.296911 L 0.000626609 102.296911 Z M 0.000626609 0.000520967 " stroke="#000000" stroke-width="6" stroke-opacity="1" stroke-miterlimit="4"/></g><g fill="#000000" fill-opacity="1"><g transform="translate(154.079209, 46.928778)"><g><path d="M 7.234375 -11.984375 C 6.628906 -11.972656 6.1875 -11.941406 5.90625 -11.890625 C 5.632812 -11.835938 5.429688 -11.703125 5.296875 -11.484375 C 5.160156 -11.273438 5.09375 -10.925781 5.09375 -10.4375 L 5.09375 -1.65625 C 5.09375 -1.300781 5.175781 -1.046875 5.34375 -0.890625 C 5.519531 -0.734375 5.800781 -0.65625 6.1875 -0.65625 L 7.484375 -0.65625 C 8.492188 -0.65625 9.289062 -0.941406 9.875 -1.515625 C 10.46875 -2.097656 10.910156 -2.988281 11.203125 -4.1875 L 11.53125 -4.1875 L 11.09375 0 L 0.28125 0 L 0.28125 -0.328125 C 0.8125 -0.335938 1.207031 -0.378906 1.46875 -0.453125 C 1.726562 -0.535156 1.914062 -0.679688 2.03125 -0.890625 C 2.15625 -1.109375 2.21875 -1.4375 2.21875 -1.875 L 2.21875 -10.4375 C 2.21875 -10.925781 2.148438 -11.273438 2.015625 -11.484375 C 1.878906 -11.703125 1.6875 -11.835938 1.4375 -11.890625 C 1.195312 -11.941406 0.8125 -11.972656 0.28125 -11.984375 L 0.28125 -12.3125 L 7.234375 -12.3125 Z M 7.234375 -11.984375 "/></g></g></g><g fill="#000000" fill-opacity="1"><g transform="translate(166.032046, 46.928778)"><g><path d="M 2.53125 -12.578125 C 2.90625 -12.578125 3.226562 -12.441406 3.5 -12.171875 C 3.769531 -11.910156 3.90625 -11.585938 3.90625 -11.203125 C 3.90625 -10.816406 3.769531 -10.484375 3.5 -10.203125 C 3.226562 -9.929688 2.90625 -9.796875 2.53125 -9.796875 C 2.144531 -9.796875 1.8125 -9.929688 1.53125 -10.203125 C 1.257812 -10.484375 1.125 -10.816406 1.125 -11.203125 C 1.125 -11.585938 1.257812 -11.910156 1.53125 -12.171875 C 1.8125 -12.441406 2.144531 -12.578125 2.53125 -12.578125 Z M 3.703125 -1.359375 C 3.703125 -0.679688 4.003906 -0.335938 4.609375 -0.328125 L 4.609375 0 L 0.21875 0 L 0.21875 -0.328125 C 0.582031 -0.328125 0.84375 -0.410156 1 -0.578125 C 1.164062 -0.742188 1.25 -1.035156 1.25 -1.453125 L 1.25 -6.875 C 1.25 -7.269531 1.171875 -7.554688 1.015625 -7.734375 C 0.859375 -7.910156 0.59375 -8 0.21875 -8 L 0.21875 -8.3125 L 3.703125 -8.3125 Z M 3.703125 -1.359375 "/></g></g></g><g fill="#000000" fill-opacity="1"><g transform="translate(170.888449, 46.928778)"><g><path d="M 5.84375 -8.515625 C 6.5625 -8.515625 7.109375 -8.269531 7.484375 -7.78125 C 7.859375 -7.300781 8.046875 -6.707031 8.046875 -6 L 8.046875 -1.71875 C 8.046875 -1.375 8.0625 -1.117188 8.09375 -0.953125 C 8.125 -0.796875 8.175781 -0.675781 8.25 -0.59375 C 8.332031 -0.507812 8.46875 -0.421875 8.65625 -0.328125 L 8.65625 0 L 4.84375 0 L 4.84375 -0.328125 C 5.34375 -0.378906 5.59375 -0.757812 5.59375 -1.46875 L 5.59375 -6.125 C 5.59375 -6.945312 5.328125 -7.359375 4.796875 -7.359375 C 4.335938 -7.359375 3.882812 -7.019531 3.4375 -6.34375 L 3.4375 -1.359375 C 3.4375 -0.765625 3.6875 -0.421875 4.1875 -0.328125 L 4.1875 0 L 0.296875 0 L 0.296875 -0.328125 C 0.515625 -0.367188 0.679688 -0.472656 0.796875 -0.640625 C 0.921875 -0.804688 0.984375 -1.078125 0.984375 -1.453125 L 0.984375 -6.921875 C 0.984375 -7.160156 0.929688 -7.382812 0.828125 -7.59375 C 0.734375 -7.800781 0.554688 -7.9375 0.296875 -8 L 0.296875 -8.3125 L 3.4375 -8.3125 L 3.4375 -7.203125 C 3.820312 -7.648438 4.203125 -7.976562 4.578125 -8.1875 C 4.960938 -8.40625 5.382812 -8.515625 5.84375 -8.515625 Z M 5.84375 -8.515625 "/></g></g></g><g fill="#000000" fill-opacity="1"><g transform="translate(179.848602, 46.928778)"><g><path d="M 4.15625 -8.515625 C 4.882812 -8.515625 5.492188 -8.328125 5.984375 -7.953125 C 6.484375 -7.585938 6.859375 -7.113281 7.109375 -6.53125 C 7.359375 -5.945312 7.492188 -5.347656 7.515625 -4.734375 L 7.515625 -4.421875 L 2.796875 -4.421875 C 2.867188 -3.429688 3.128906 -2.628906 3.578125 -2.015625 C 4.023438 -1.410156 4.582031 -1.109375 5.25 -1.109375 C 5.675781 -1.109375 6.039062 -1.222656 6.34375 -1.453125 C 6.65625 -1.691406 6.9375 -2.03125 7.1875 -2.46875 L 7.515625 -2.28125 C 7.109375 -1.414062 6.625 -0.773438 6.0625 -0.359375 C 5.5 0.046875 4.832031 0.25 4.0625 0.25 C 3.300781 0.25 2.648438 0.0625 2.109375 -0.3125 C 1.566406 -0.6875 1.148438 -1.195312 0.859375 -1.84375 C 0.578125 -2.488281 0.4375 -3.210938 0.4375 -4.015625 C 0.4375 -4.816406 0.601562 -5.5625 0.9375 -6.25 C 1.269531 -6.9375 1.722656 -7.484375 2.296875 -7.890625 C 2.867188 -8.304688 3.488281 -8.515625 4.15625 -8.515625 Z M 5.328125 -5.46875 C 5.328125 -6.3125 5.234375 -6.9375 5.046875 -7.34375 C 4.859375 -7.75 4.5625 -7.953125 4.15625 -7.953125 C 3.726562 -7.953125 3.394531 -7.6875 3.15625 -7.15625 C 2.914062 -6.625 2.796875 -6.015625 2.796875 -5.328125 L 2.796875 -5.015625 L 5.328125 -5.015625 Z M 5.328125 -5.46875 "/></g></g></g><g fill="#000000" fill-opacity="1"><g transform="translate(187.697689, 46.928778)"><g><path d="M 4.546875 -8.515625 C 5.578125 -8.515625 6.332031 -8.304688 6.8125 -7.890625 C 7.289062 -7.472656 7.53125 -6.941406 7.53125 -6.296875 L 7.53125 -1.859375 C 7.53125 -1.203125 7.695312 -0.875 8.03125 -0.875 C 8.125 -0.875 8.203125 -0.898438 8.265625 -0.953125 C 8.335938 -1.015625 8.414062 -1.109375 8.5 -1.234375 L 8.65625 -1.078125 C 8.488281 -0.671875 8.222656 -0.347656 7.859375 -0.109375 C 7.503906 0.128906 7.109375 0.25 6.671875 0.25 C 6.210938 0.25 5.84375 0.132812 5.5625 -0.09375 C 5.28125 -0.320312 5.117188 -0.65625 5.078125 -1.09375 C 5.003906 -1.039062 4.894531 -0.957031 4.75 -0.84375 C 4.332031 -0.5 3.941406 -0.226562 3.578125 -0.03125 C 3.222656 0.15625 2.8125 0.25 2.34375 0.25 C 1.882812 0.25 1.492188 0.0820312 1.171875 -0.25 C 0.859375 -0.582031 0.703125 -0.988281 0.703125 -1.46875 C 0.703125 -2.09375 0.972656 -2.648438 1.515625 -3.140625 C 2.054688 -3.628906 2.648438 -4.019531 3.296875 -4.3125 L 5.078125 -5.171875 L 5.078125 -6.8125 C 5.078125 -7.113281 4.984375 -7.367188 4.796875 -7.578125 C 4.609375 -7.785156 4.316406 -7.890625 3.921875 -7.890625 C 3.578125 -7.890625 3.285156 -7.816406 3.046875 -7.671875 C 2.816406 -7.523438 2.703125 -7.351562 2.703125 -7.15625 C 2.703125 -7.082031 2.722656 -7.007812 2.765625 -6.9375 C 2.804688 -6.863281 2.859375 -6.789062 2.921875 -6.71875 C 3.023438 -6.59375 3.109375 -6.46875 3.171875 -6.34375 C 3.234375 -6.226562 3.265625 -6.09375 3.265625 -5.9375 C 3.265625 -5.644531 3.15625 -5.410156 2.9375 -5.234375 C 2.71875 -5.054688 2.4375 -4.96875 2.09375 -4.96875 C 1.707031 -4.96875 1.394531 -5.066406 1.15625 -5.265625 C 0.925781 -5.472656 0.8125 -5.742188 0.8125 -6.078125 C 0.8125 -6.503906 0.976562 -6.90625 1.3125 -7.28125 C 1.65625 -7.65625 2.113281 -7.953125 2.6875 -8.171875 C 3.257812 -8.398438 3.878906 -8.515625 4.546875 -8.515625 Z M 3.140625 -2.234375 C 3.140625 -1.953125 3.21875 -1.71875 3.375 -1.53125 C 3.539062 -1.351562 3.75 -1.265625 4 -1.265625 C 4.195312 -1.265625 4.375 -1.300781 4.53125 -1.375 C 4.695312 -1.445312 4.878906 -1.5625 5.078125 -1.71875 L 5.078125 -4.546875 C 3.785156 -3.890625 3.140625 -3.117188 3.140625 -2.234375 Z M 3.140625 -2.234375 "/></g></g></g><g fill="#000000" fill-opacity="1"><g transform="translate(196.657843, 46.928778)"><g><path d="M 5.5625 -8.515625 C 5.84375 -8.515625 6.070312 -8.398438 6.25 -8.171875 C 6.4375 -7.953125 6.53125 -7.671875 6.53125 -7.328125 C 6.53125 -6.960938 6.4375 -6.664062 6.25 -6.4375 C 6.070312 -6.207031 5.828125 -6.09375 5.515625 -6.09375 C 5.378906 -6.09375 5.253906 -6.117188 5.140625 -6.171875 C 5.035156 -6.234375 4.90625 -6.320312 4.75 -6.4375 C 4.519531 -6.59375 4.351562 -6.671875 4.25 -6.671875 C 4.050781 -6.671875 3.882812 -6.515625 3.75 -6.203125 C 3.625 -5.890625 3.5625 -5.535156 3.5625 -5.140625 L 3.5625 -1.421875 C 3.5625 -1.023438 3.640625 -0.742188 3.796875 -0.578125 C 3.953125 -0.410156 4.234375 -0.328125 4.640625 -0.328125 L 4.640625 0 L 0.203125 0 L 0.203125 -0.328125 C 0.804688 -0.328125 1.109375 -0.679688 1.109375 -1.390625 L 1.109375 -6.921875 C 1.109375 -7.617188 0.804688 -7.976562 0.203125 -8 L 0.203125 -8.3125 L 3.5625 -8.3125 L 3.5625 -6.828125 L 3.609375 -6.828125 C 4.160156 -7.953125 4.8125 -8.515625 5.5625 -8.515625 Z M 5.5625 -8.515625 "/></g></g></g><g fill="#000000" fill-opacity="1"><g transform="translate(203.558516, 46.928778)"><g/></g></g><g fill="#000000" fill-opacity="1"><g transform="translate(161.732693, 71.569263)"><g><path d="M 11.125 -8.90625 C 11.125 -8.15625 10.878906 -7.503906 10.390625 -6.953125 C 9.910156 -6.410156 9.257812 -6.039062 8.4375 -5.84375 L 10.859375 -1.875 C 11.171875 -1.363281 11.460938 -0.976562 11.734375 -0.71875 C 12.003906 -0.46875 12.273438 -0.335938 12.546875 -0.328125 L 12.546875 0 L 8.90625 0 L 5.484375 -5.609375 L 4.921875 -5.609375 L 4.921875 -1.859375 C 4.921875 -1.398438 4.984375 -1.0625 5.109375 -0.84375 C 5.242188 -0.625 5.425781 -0.484375 5.65625 -0.421875 C 5.894531 -0.367188 6.253906 -0.335938 6.734375 -0.328125 L 6.734375 0 L 0.34375 0 L 0.34375 -0.328125 C 0.789062 -0.335938 1.128906 -0.375 1.359375 -0.4375 C 1.597656 -0.5 1.773438 -0.640625 1.890625 -0.859375 C 2.003906 -1.085938 2.0625 -1.421875 2.0625 -1.859375 L 2.0625 -10.609375 C 2.0625 -11.148438 1.925781 -11.515625 1.65625 -11.703125 C 1.382812 -11.890625 0.945312 -11.984375 0.34375 -11.984375 L 0.34375 -12.3125 L 6.671875 -12.3125 C 7.992188 -12.3125 9.066406 -12.007812 9.890625 -11.40625 C 10.710938 -10.8125 11.125 -9.976562 11.125 -8.90625 Z M 5.890625 -6.265625 C 6.492188 -6.265625 7.03125 -6.453125 7.5 -6.828125 C 7.976562 -7.210938 8.21875 -7.925781 8.21875 -8.96875 C 8.21875 -10.757812 7.351562 -11.65625 5.625 -11.65625 L 4.921875 -11.65625 L 4.921875 -6.265625 Z M 5.890625 -6.265625 "/></g></g></g><g fill="#000000" fill-opacity="1"><g transform="translate(174.61739, 71.569263)"><g><path d="M 7.28125 -12.578125 C 7.894531 -12.578125 8.421875 -12.519531 8.859375 -12.40625 C 9.304688 -12.289062 9.757812 -12.140625 10.21875 -11.953125 C 10.5625 -11.804688 10.804688 -11.734375 10.953125 -11.734375 C 11.179688 -11.734375 11.347656 -11.800781 11.453125 -11.9375 C 11.566406 -12.070312 11.675781 -12.273438 11.78125 -12.546875 L 12.140625 -12.546875 L 12.140625 -8.375 L 11.78125 -8.375 C 11.394531 -9.476562 10.820312 -10.335938 10.0625 -10.953125 C 9.3125 -11.566406 8.472656 -11.875 7.546875 -11.875 C 6.421875 -11.875 5.546875 -11.34375 4.921875 -10.28125 C 4.296875 -9.21875 3.984375 -7.753906 3.984375 -5.890625 C 3.984375 -3.609375 4.414062 -2.078125 5.28125 -1.296875 C 5.613281 -0.984375 5.976562 -0.75 6.375 -0.59375 C 6.78125 -0.445312 7.171875 -0.375 7.546875 -0.375 C 8.109375 -0.375 8.679688 -0.503906 9.265625 -0.765625 L 9.265625 -3.78125 C 9.265625 -4.519531 8.789062 -4.890625 7.84375 -4.890625 L 7.71875 -4.890625 L 7.71875 -5.21875 L 13.5625 -5.21875 L 13.5625 -4.890625 C 12.613281 -4.890625 12.140625 -4.523438 12.140625 -3.796875 L 12.140625 -0.765625 C 11.535156 -0.441406 10.816406 -0.191406 9.984375 -0.015625 C 9.160156 0.160156 8.320312 0.25 7.46875 0.25 C 6.09375 0.25 4.898438 -0.015625 3.890625 -0.546875 C 2.890625 -1.085938 2.117188 -1.820312 1.578125 -2.75 C 1.046875 -3.6875 0.78125 -4.726562 0.78125 -5.875 C 0.78125 -7.082031 1.070312 -8.195312 1.65625 -9.21875 C 2.238281 -10.25 3.023438 -11.066406 4.015625 -11.671875 C 5.003906 -12.273438 6.09375 -12.578125 7.28125 -12.578125 Z M 7.28125 -12.578125 "/></g></g></g><g fill="#000000" fill-opacity="1"><g transform="translate(188.433946, 71.569263)"><g><path d="M 11 -9.296875 C 11 -8.578125 10.75 -7.972656 10.25 -7.484375 C 9.75 -6.992188 9.03125 -6.660156 8.09375 -6.484375 L 8.09375 -6.453125 C 9.144531 -6.296875 9.976562 -5.9375 10.59375 -5.375 C 11.21875 -4.8125 11.53125 -4.125 11.53125 -3.3125 C 11.53125 -2.625 11.320312 -2.023438 10.90625 -1.515625 C 10.488281 -1.015625 9.9375 -0.632812 9.25 -0.375 C 8.5625 -0.125 7.820312 0 7.03125 0 L 0.265625 0 L 0.265625 -0.328125 C 0.710938 -0.328125 1.046875 -0.359375 1.265625 -0.421875 C 1.492188 -0.484375 1.664062 -0.625 1.78125 -0.84375 C 1.894531 -1.0625 1.953125 -1.398438 1.953125 -1.859375 L 1.953125 -10.4375 C 1.953125 -10.863281 1.898438 -11.1875 1.796875 -11.40625 C 1.703125 -11.625 1.539062 -11.769531 1.3125 -11.84375 C 1.09375 -11.925781 0.78125 -11.972656 0.375 -11.984375 L 0.375 -12.3125 L 6.78125 -12.3125 C 7.425781 -12.3125 8.066406 -12.210938 8.703125 -12.015625 C 9.347656 -11.828125 9.890625 -11.507812 10.328125 -11.0625 C 10.773438 -10.613281 11 -10.023438 11 -9.296875 Z M 5.3125 -6.71875 C 6.289062 -6.71875 6.984375 -6.960938 7.390625 -7.453125 C 7.796875 -7.953125 8 -8.53125 8 -9.1875 C 8 -9.800781 7.816406 -10.363281 7.453125 -10.875 C 7.097656 -11.394531 6.5 -11.65625 5.65625 -11.65625 L 4.828125 -11.65625 L 4.828125 -6.71875 Z M 5.859375 -0.625 C 6.597656 -0.625 7.191406 -0.859375 7.640625 -1.328125 C 8.097656 -1.796875 8.328125 -2.414062 8.328125 -3.1875 C 8.328125 -4 8.078125 -4.679688 7.578125 -5.234375 C 7.078125 -5.785156 6.289062 -6.0625 5.21875 -6.0625 L 4.828125 -6.0625 L 4.828125 -1.828125 C 4.828125 -1.347656 4.910156 -1.023438 5.078125 -0.859375 C 5.242188 -0.703125 5.503906 -0.625 5.859375 -0.625 Z M 5.859375 -0.625 "/></g></g></g><g clip-path="url(#85c6e35c4c)"><path stroke-linecap="butt" transform="matrix(0.746681, 0, 0, 0.746681, 257.356195, 17.809898)" fill="none" stroke-linejoin="miter" d="M -0.000972531 -0.00174687 L 191.220152 -0.00174687 L 191.220152 102.294649 L -0.000972531 102.294649 Z M -0.000972531 -0.00174687 " stroke="#000000" stroke-width="6" stroke-opacity="1" stroke-miterlimit="4"/></g><g fill="#000000" fill-opacity="1"><g transform="translate(285.601751, 46.928778)"><g><path d="M 11.125 -8.90625 C 11.125 -8.15625 10.878906 -7.503906 10.390625 -6.953125 C 9.910156 -6.410156 9.257812 -6.039062 8.4375 -5.84375 L 10.859375 -1.875 C 11.171875 -1.363281 11.460938 -0.976562 11.734375 -0.71875 C 12.003906 -0.46875 12.273438 -0.335938 12.546875 -0.328125 L 12.546875 0 L 8.90625 0 L 5.484375 -5.609375 L 4.921875 -5.609375 L 4.921875 -1.859375 C 4.921875 -1.398438 4.984375 -1.0625 5.109375 -0.84375 C 5.242188 -0.625 5.425781 -0.484375 5.65625 -0.421875 C 5.894531 -0.367188 6.253906 -0.335938 6.734375 -0.328125 L 6.734375 0 L 0.34375 0 L 0.34375 -0.328125 C 0.789062 -0.335938 1.128906 -0.375 1.359375 -0.4375 C 1.597656 -0.5 1.773438 -0.640625 1.890625 -0.859375 C 2.003906 -1.085938 2.0625 -1.421875 2.0625 -1.859375 L 2.0625 -10.609375 C 2.0625 -11.148438 1.925781 -11.515625 1.65625 -11.703125 C 1.382812 -11.890625 0.945312 -11.984375 0.34375 -11.984375 L 0.34375 -12.3125 L 6.671875 -12.3125 C 7.992188 -12.3125 9.066406 -12.007812 9.890625 -11.40625 C 10.710938 -10.8125 11.125 -9.976562 11.125 -8.90625 Z M 5.890625 -6.265625 C 6.492188 -6.265625 7.03125 -6.453125 7.5 -6.828125 C 7.976562 -7.210938 8.21875 -7.925781 8.21875 -8.96875 C 8.21875 -10.757812 7.351562 -11.65625 5.625 -11.65625 L 4.921875 -11.65625 L 4.921875 -6.265625 Z M 5.890625 -6.265625 "/></g></g></g><g fill="#000000" fill-opacity="1"><g transform="translate(298.486448, 46.928778)"><g><path d="M 7.28125 -12.578125 C 7.894531 -12.578125 8.421875 -12.519531 8.859375 -12.40625 C 9.304688 -12.289062 9.757812 -12.140625 10.21875 -11.953125 C 10.5625 -11.804688 10.804688 -11.734375 10.953125 -11.734375 C 11.179688 -11.734375 11.347656 -11.800781 11.453125 -11.9375 C 11.566406 -12.070312 11.675781 -12.273438 11.78125 -12.546875 L 12.140625 -12.546875 L 12.140625 -8.375 L 11.78125 -8.375 C 11.394531 -9.476562 10.820312 -10.335938 10.0625 -10.953125 C 9.3125 -11.566406 8.472656 -11.875 7.546875 -11.875 C 6.421875 -11.875 5.546875 -11.34375 4.921875 -10.28125 C 4.296875 -9.21875 3.984375 -7.753906 3.984375 -5.890625 C 3.984375 -3.609375 4.414062 -2.078125 5.28125 -1.296875 C 5.613281 -0.984375 5.976562 -0.75 6.375 -0.59375 C 6.78125 -0.445312 7.171875 -0.375 7.546875 -0.375 C 8.109375 -0.375 8.679688 -0.503906 9.265625 -0.765625 L 9.265625 -3.78125 C 9.265625 -4.519531 8.789062 -4.890625 7.84375 -4.890625 L 7.71875 -4.890625 L 7.71875 -5.21875 L 13.5625 -5.21875 L 13.5625 -4.890625 C 12.613281 -4.890625 12.140625 -4.523438 12.140625 -3.796875 L 12.140625 -0.765625 C 11.535156 -0.441406 10.816406 -0.191406 9.984375 -0.015625 C 9.160156 0.160156 8.320312 0.25 7.46875 0.25 C 6.09375 0.25 4.898438 -0.015625 3.890625 -0.546875 C 2.890625 -1.085938 2.117188 -1.820312 1.578125 -2.75 C 1.046875 -3.6875 0.78125 -4.726562 0.78125 -5.875 C 0.78125 -7.082031 1.070312 -8.195312 1.65625 -9.21875 C 2.238281 -10.25 3.023438 -11.066406 4.015625 -11.671875 C 5.003906 -12.273438 6.09375 -12.578125 7.28125 -12.578125 Z M 7.28125 -12.578125 "/></g></g></g><g fill="#000000" fill-opacity="1"><g transform="translate(312.303004, 46.928778)"><g><path d="M 11 -9.296875 C 11 -8.578125 10.75 -7.972656 10.25 -7.484375 C 9.75 -6.992188 9.03125 -6.660156 8.09375 -6.484375 L 8.09375 -6.453125 C 9.144531 -6.296875 9.976562 -5.9375 10.59375 -5.375 C 11.21875 -4.8125 11.53125 -4.125 11.53125 -3.3125 C 11.53125 -2.625 11.320312 -2.023438 10.90625 -1.515625 C 10.488281 -1.015625 9.9375 -0.632812 9.25 -0.375 C 8.5625 -0.125 7.820312 0 7.03125 0 L 0.265625 0 L 0.265625 -0.328125 C 0.710938 -0.328125 1.046875 -0.359375 1.265625 -0.421875 C 1.492188 -0.484375 1.664062 -0.625 1.78125 -0.84375 C 1.894531 -1.0625 1.953125 -1.398438 1.953125 -1.859375 L 1.953125 -10.4375 C 1.953125 -10.863281 1.898438 -11.1875 1.796875 -11.40625 C 1.703125 -11.625 1.539062 -11.769531 1.3125 -11.84375 C 1.09375 -11.925781 0.78125 -11.972656 0.375 -11.984375 L 0.375 -12.3125 L 6.78125 -12.3125 C 7.425781 -12.3125 8.066406 -12.210938 8.703125 -12.015625 C 9.347656 -11.828125 9.890625 -11.507812 10.328125 -11.0625 C 10.773438 -10.613281 11 -10.023438 11 -9.296875 Z M 5.3125 -6.71875 C 6.289062 -6.71875 6.984375 -6.960938 7.390625 -7.453125 C 7.796875 -7.953125 8 -8.53125 8 -9.1875 C 8 -9.800781 7.816406 -10.363281 7.453125 -10.875 C 7.097656 -11.394531 6.5 -11.65625 5.65625 -11.65625 L 4.828125 -11.65625 L 4.828125 -6.71875 Z M 5.859375 -0.625 C 6.597656 -0.625 7.191406 -0.859375 7.640625 -1.328125 C 8.097656 -1.796875 8.328125 -2.414062 8.328125 -3.1875 C 8.328125 -4 8.078125 -4.679688 7.578125 -5.234375 C 7.078125 -5.785156 6.289062 -6.0625 5.21875 -6.0625 L 4.828125 -6.0625 L 4.828125 -1.828125 C 4.828125 -1.347656 4.910156 -1.023438 5.078125 -0.859375 C 5.242188 -0.703125 5.503906 -0.625 5.859375 -0.625 Z M 5.859375 -0.625 "/></g></g></g><g fill="#000000" fill-opacity="1"><g transform="translate(324.255842, 46.928778)"><g><path d="M 4.390625 -12.515625 C 5.054688 -12.515625 5.660156 -12.375 6.203125 -12.09375 C 6.753906 -11.820312 7.179688 -11.441406 7.484375 -10.953125 C 7.785156 -10.472656 7.9375 -9.9375 7.9375 -9.34375 C 7.9375 -8.363281 7.519531 -7.320312 6.6875 -6.21875 C 5.863281 -5.113281 4.675781 -3.84375 3.125 -2.40625 L 6.5 -2.40625 C 6.976562 -2.40625 7.351562 -2.503906 7.625 -2.703125 C 7.90625 -2.898438 8.097656 -3.1875 8.203125 -3.5625 L 8.546875 -3.5625 L 7.890625 0 L 0.359375 0 L 0.359375 -0.25 L 1.359375 -1.359375 C 2.148438 -2.242188 2.820312 -3.066406 3.375 -3.828125 C 3.8125 -4.453125 4.15625 -4.960938 4.40625 -5.359375 C 4.65625 -5.753906 4.863281 -6.179688 5.03125 -6.640625 C 5.195312 -7.109375 5.28125 -7.59375 5.28125 -8.09375 C 5.28125 -8.8125 5.070312 -9.394531 4.65625 -9.84375 C 4.25 -10.289062 3.722656 -10.515625 3.078125 -10.515625 C 2.585938 -10.515625 2.148438 -10.382812 1.765625 -10.125 C 1.378906 -9.863281 1.082031 -9.488281 0.875 -9 L 0.5625 -9.109375 C 1.164062 -11.378906 2.441406 -12.515625 4.390625 -12.515625 Z M 4.390625 -12.515625 "/></g></g></g><g fill="#000000" fill-opacity="1"><g transform="translate(333.215995, 46.928778)"><g><path d="M 6.203125 -11.984375 C 5.742188 -11.972656 5.425781 -11.9375 5.25 -11.875 C 5.082031 -11.820312 5 -11.679688 5 -11.453125 C 5 -11.210938 5.101562 -10.929688 5.3125 -10.609375 L 7.09375 -7.78125 L 8.515625 -9.671875 C 8.953125 -10.296875 9.171875 -10.757812 9.171875 -11.0625 C 9.171875 -11.675781 8.738281 -11.984375 7.875 -11.984375 L 7.875 -12.3125 L 12.1875 -12.3125 L 12.1875 -11.984375 C 11.71875 -11.960938 11.328125 -11.84375 11.015625 -11.625 C 10.710938 -11.414062 10.320312 -10.992188 9.84375 -10.359375 L 7.484375 -7.1875 L 10.828125 -1.921875 C 11.171875 -1.367188 11.484375 -0.96875 11.765625 -0.71875 C 12.046875 -0.476562 12.316406 -0.347656 12.578125 -0.328125 L 12.578125 0 L 6.84375 0 L 6.84375 -0.328125 C 7.269531 -0.328125 7.5625 -0.367188 7.71875 -0.453125 C 7.882812 -0.535156 7.96875 -0.679688 7.96875 -0.890625 C 7.96875 -1.035156 7.894531 -1.234375 7.75 -1.484375 C 7.613281 -1.742188 7.34375 -2.195312 6.9375 -2.84375 L 5.703125 -4.84375 L 3.734375 -2.203125 C 3.410156 -1.742188 3.25 -1.375 3.25 -1.09375 C 3.25 -0.582031 3.765625 -0.328125 4.796875 -0.328125 L 4.796875 0 L 0.28125 0 L 0.28125 -0.328125 C 0.789062 -0.328125 1.253906 -0.5 1.671875 -0.84375 C 2.085938 -1.195312 2.5625 -1.738281 3.09375 -2.46875 L 5.3125 -5.4375 L 2.171875 -10.34375 C 1.796875 -10.9375 1.476562 -11.359375 1.21875 -11.609375 C 0.957031 -11.859375 0.644531 -11.984375 0.28125 -11.984375 L 0.28125 -12.3125 L 6.203125 -12.3125 Z M 6.203125 -11.984375 "/></g></g></g><g fill="#000000" fill-opacity="1"><g transform="translate(346.100692, 46.928778)"><g><path d="M 5.96875 -11.984375 C 5.53125 -11.984375 5.222656 -11.941406 5.046875 -11.859375 C 4.878906 -11.773438 4.796875 -11.640625 4.796875 -11.453125 C 4.796875 -11.285156 4.875 -11.046875 5.03125 -10.734375 L 7.71875 -5.71875 L 10 -10.078125 C 10.25 -10.566406 10.375 -10.941406 10.375 -11.203125 C 10.375 -11.503906 10.25 -11.707031 10 -11.8125 C 9.75 -11.925781 9.410156 -11.984375 8.984375 -11.984375 L 8.984375 -12.3125 L 12.640625 -12.3125 L 12.640625 -11.984375 C 12.410156 -11.984375 12.207031 -11.9375 12.03125 -11.84375 C 11.863281 -11.757812 11.679688 -11.582031 11.484375 -11.3125 C 11.285156 -11.050781 11.039062 -10.648438 10.75 -10.109375 L 8.125 -5.078125 L 8.125 -1.84375 C 8.125 -1.363281 8.175781 -1.019531 8.28125 -0.8125 C 8.382812 -0.613281 8.554688 -0.484375 8.796875 -0.421875 C 9.035156 -0.367188 9.441406 -0.335938 10.015625 -0.328125 L 10.015625 0 L 3.34375 0 L 3.34375 -0.328125 C 3.863281 -0.335938 4.253906 -0.382812 4.515625 -0.46875 C 4.773438 -0.550781 4.960938 -0.695312 5.078125 -0.90625 C 5.191406 -1.113281 5.25 -1.429688 5.25 -1.859375 L 5.25 -4.5625 L 2.109375 -10.359375 C 1.859375 -10.828125 1.648438 -11.164062 1.484375 -11.375 C 1.328125 -11.59375 1.15625 -11.75 0.96875 -11.84375 C 0.789062 -11.9375 0.550781 -11.984375 0.25 -11.984375 L 0.25 -12.3125 L 5.96875 -12.3125 Z M 5.96875 -11.984375 "/></g></g></g><g fill="#000000" fill-opacity="1"><g transform="translate(358.985389, 46.928778)"><g><path d="M 4.265625 -0.65625 L 7.59375 -0.65625 C 8.78125 -0.65625 9.75 -0.957031 10.5 -1.5625 C 11.25 -2.164062 11.726562 -3.082031 11.9375 -4.3125 L 12.28125 -4.3125 L 11.90625 0 L 0.59375 0 L 8.015625 -11.65625 L 5.5 -11.65625 C 4.46875 -11.65625 3.65625 -11.421875 3.0625 -10.953125 C 2.476562 -10.484375 2.09375 -9.757812 1.90625 -8.78125 L 1.609375 -8.78125 L 1.90625 -12.3125 L 11.65625 -12.3125 Z M 4.265625 -0.65625 "/></g></g></g><g fill="#000000" fill-opacity="1"><g transform="translate(277.504925, 71.569263)"><g><path d="M 8.90625 -3.859375 L 12.703125 -12.3125 L 17.484375 -12.3125 L 17.484375 -11.984375 C 17.078125 -11.972656 16.765625 -11.9375 16.546875 -11.875 C 16.328125 -11.820312 16.160156 -11.691406 16.046875 -11.484375 C 15.929688 -11.285156 15.875 -10.984375 15.875 -10.578125 L 15.875 -1.875 C 15.875 -1.414062 15.929688 -1.070312 16.046875 -0.84375 C 16.160156 -0.625 16.320312 -0.484375 16.53125 -0.421875 C 16.75 -0.367188 17.066406 -0.335938 17.484375 -0.328125 L 17.484375 0 L 11.25 0 L 11.25 -0.328125 C 11.71875 -0.335938 12.070312 -0.375 12.3125 -0.4375 C 12.550781 -0.5 12.726562 -0.640625 12.84375 -0.859375 C 12.957031 -1.078125 13.015625 -1.410156 13.015625 -1.859375 L 13.015625 -11.375 L 12.96875 -11.375 L 7.890625 0 L 7.640625 0 L 2.5625 -11.296875 L 2.53125 -11.296875 L 2.53125 -1.796875 C 2.53125 -1.296875 2.671875 -0.925781 2.953125 -0.6875 C 3.242188 -0.445312 3.679688 -0.328125 4.265625 -0.328125 L 4.265625 0 L 0.265625 0 L 0.265625 -0.328125 C 0.804688 -0.328125 1.210938 -0.46875 1.484375 -0.75 C 1.765625 -1.039062 1.90625 -1.40625 1.90625 -1.84375 L 1.90625 -10.4375 C 1.90625 -10.863281 1.851562 -11.1875 1.75 -11.40625 C 1.644531 -11.625 1.476562 -11.769531 1.25 -11.84375 C 1.019531 -11.925781 0.691406 -11.972656 0.265625 -11.984375 L 0.265625 -12.3125 L 5.09375 -12.3125 Z M 8.90625 -3.859375 "/></g></g></g><g fill="#000000" fill-opacity="1"><g transform="translate(295.246024, 71.569263)"><g><path d="M 4.546875 -8.515625 C 5.578125 -8.515625 6.332031 -8.304688 6.8125 -7.890625 C 7.289062 -7.472656 7.53125 -6.941406 7.53125 -6.296875 L 7.53125 -1.859375 C 7.53125 -1.203125 7.695312 -0.875 8.03125 -0.875 C 8.125 -0.875 8.203125 -0.898438 8.265625 -0.953125 C 8.335938 -1.015625 8.414062 -1.109375 8.5 -1.234375 L 8.65625 -1.078125 C 8.488281 -0.671875 8.222656 -0.347656 7.859375 -0.109375 C 7.503906 0.128906 7.109375 0.25 6.671875 0.25 C 6.210938 0.25 5.84375 0.132812 5.5625 -0.09375 C 5.28125 -0.320312 5.117188 -0.65625 5.078125 -1.09375 C 5.003906 -1.039062 4.894531 -0.957031 4.75 -0.84375 C 4.332031 -0.5 3.941406 -0.226562 3.578125 -0.03125 C 3.222656 0.15625 2.8125 0.25 2.34375 0.25 C 1.882812 0.25 1.492188 0.0820312 1.171875 -0.25 C 0.859375 -0.582031 0.703125 -0.988281 0.703125 -1.46875 C 0.703125 -2.09375 0.972656 -2.648438 1.515625 -3.140625 C 2.054688 -3.628906 2.648438 -4.019531 3.296875 -4.3125 L 5.078125 -5.171875 L 5.078125 -6.8125 C 5.078125 -7.113281 4.984375 -7.367188 4.796875 -7.578125 C 4.609375 -7.785156 4.316406 -7.890625 3.921875 -7.890625 C 3.578125 -7.890625 3.285156 -7.816406 3.046875 -7.671875 C 2.816406 -7.523438 2.703125 -7.351562 2.703125 -7.15625 C 2.703125 -7.082031 2.722656 -7.007812 2.765625 -6.9375 C 2.804688 -6.863281 2.859375 -6.789062 2.921875 -6.71875 C 3.023438 -6.59375 3.109375 -6.46875 3.171875 -6.34375 C 3.234375 -6.226562 3.265625 -6.09375 3.265625 -5.9375 C 3.265625 -5.644531 3.15625 -5.410156 2.9375 -5.234375 C 2.71875 -5.054688 2.4375 -4.96875 2.09375 -4.96875 C 1.707031 -4.96875 1.394531 -5.066406 1.15625 -5.265625 C 0.925781 -5.472656 0.8125 -5.742188 0.8125 -6.078125 C 0.8125 -6.503906 0.976562 -6.90625 1.3125 -7.28125 C 1.65625 -7.65625 2.113281 -7.953125 2.6875 -8.171875 C 3.257812 -8.398438 3.878906 -8.515625 4.546875 -8.515625 Z M 3.140625 -2.234375 C 3.140625 -1.953125 3.21875 -1.71875 3.375 -1.53125 C 3.539062 -1.351562 3.75 -1.265625 4 -1.265625 C 4.195312 -1.265625 4.375 -1.300781 4.53125 -1.375 C 4.695312 -1.445312 4.878906 -1.5625 5.078125 -1.71875 L 5.078125 -4.546875 C 3.785156 -3.890625 3.140625 -3.117188 3.140625 -2.234375 Z M 3.140625 -2.234375 "/></g></g></g><g fill="#000000" fill-opacity="1"><g transform="translate(304.206178, 71.569263)"><g><path d="M 3.484375 -11.3125 L 3.78125 -11.3125 L 3.78125 -8.3125 L 5.6875 -8.3125 L 5.6875 -7.421875 L 3.78125 -7.421875 L 3.78125 -1.6875 C 3.78125 -1.457031 3.828125 -1.242188 3.921875 -1.046875 C 4.015625 -0.859375 4.179688 -0.765625 4.421875 -0.765625 C 4.828125 -0.765625 5.175781 -1.046875 5.46875 -1.609375 L 5.6875 -1.328125 C 5.207031 -0.273438 4.445312 0.25 3.40625 0.25 C 2.738281 0.25 2.222656 0.0390625 1.859375 -0.375 C 1.503906 -0.789062 1.328125 -1.300781 1.328125 -1.90625 L 1.328125 -7.421875 L 0.296875 -7.421875 L 0.296875 -7.75 C 0.878906 -8.15625 1.503906 -8.734375 2.171875 -9.484375 C 2.835938 -10.234375 3.273438 -10.84375 3.484375 -11.3125 Z M 3.484375 -11.3125 "/></g></g></g><g fill="#000000" fill-opacity="1"><g transform="translate(310.173636, 71.569263)"><g><path d="M 5.5625 -8.515625 C 5.84375 -8.515625 6.070312 -8.398438 6.25 -8.171875 C 6.4375 -7.953125 6.53125 -7.671875 6.53125 -7.328125 C 6.53125 -6.960938 6.4375 -6.664062 6.25 -6.4375 C 6.070312 -6.207031 5.828125 -6.09375 5.515625 -6.09375 C 5.378906 -6.09375 5.253906 -6.117188 5.140625 -6.171875 C 5.035156 -6.234375 4.90625 -6.320312 4.75 -6.4375 C 4.519531 -6.59375 4.351562 -6.671875 4.25 -6.671875 C 4.050781 -6.671875 3.882812 -6.515625 3.75 -6.203125 C 3.625 -5.890625 3.5625 -5.535156 3.5625 -5.140625 L 3.5625 -1.421875 C 3.5625 -1.023438 3.640625 -0.742188 3.796875 -0.578125 C 3.953125 -0.410156 4.234375 -0.328125 4.640625 -0.328125 L 4.640625 0 L 0.203125 0 L 0.203125 -0.328125 C 0.804688 -0.328125 1.109375 -0.679688 1.109375 -1.390625 L 1.109375 -6.921875 C 1.109375 -7.617188 0.804688 -7.976562 0.203125 -8 L 0.203125 -8.3125 L 3.5625 -8.3125 L 3.5625 -6.828125 L 3.609375 -6.828125 C 4.160156 -7.953125 4.8125 -8.515625 5.5625 -8.515625 Z M 5.5625 -8.515625 "/></g></g></g><g fill="#000000" fill-opacity="1"><g transform="translate(317.072953, 71.569263)"><g><path d="M 2.53125 -12.578125 C 2.90625 -12.578125 3.226562 -12.441406 3.5 -12.171875 C 3.769531 -11.910156 3.90625 -11.585938 3.90625 -11.203125 C 3.90625 -10.816406 3.769531 -10.484375 3.5 -10.203125 C 3.226562 -9.929688 2.90625 -9.796875 2.53125 -9.796875 C 2.144531 -9.796875 1.8125 -9.929688 1.53125 -10.203125 C 1.257812 -10.484375 1.125 -10.816406 1.125 -11.203125 C 1.125 -11.585938 1.257812 -11.910156 1.53125 -12.171875 C 1.8125 -12.441406 2.144531 -12.578125 2.53125 -12.578125 Z M 3.703125 -1.359375 C 3.703125 -0.679688 4.003906 -0.335938 4.609375 -0.328125 L 4.609375 0 L 0.21875 0 L 0.21875 -0.328125 C 0.582031 -0.328125 0.84375 -0.410156 1 -0.578125 C 1.164062 -0.742188 1.25 -1.035156 1.25 -1.453125 L 1.25 -6.875 C 1.25 -7.269531 1.171875 -7.554688 1.015625 -7.734375 C 0.859375 -7.910156 0.59375 -8 0.21875 -8 L 0.21875 -8.3125 L 3.703125 -8.3125 Z M 3.703125 -1.359375 "/></g></g></g><g fill="#000000" fill-opacity="1"><g transform="translate(321.929355, 71.569263)"><g><path d="M 4.953125 -8 C 4.691406 -8 4.492188 -7.972656 4.359375 -7.921875 C 4.222656 -7.867188 4.15625 -7.773438 4.15625 -7.640625 C 4.15625 -7.503906 4.25 -7.285156 4.4375 -6.984375 L 5.53125 -5.390625 L 6.578125 -6.703125 C 6.859375 -7.035156 7 -7.316406 7 -7.546875 C 7 -7.847656 6.742188 -8 6.234375 -8 L 6.234375 -8.3125 L 9.1875 -8.3125 L 9.1875 -8 C 8.851562 -7.96875 8.582031 -7.894531 8.375 -7.78125 C 8.164062 -7.664062 7.929688 -7.453125 7.671875 -7.140625 L 5.859375 -4.921875 L 8.328125 -1.328125 C 8.628906 -0.898438 8.847656 -0.625 8.984375 -0.5 C 9.117188 -0.382812 9.285156 -0.328125 9.484375 -0.328125 L 9.546875 -0.328125 L 9.546875 0 L 4.953125 0 L 4.953125 -0.328125 L 5.078125 -0.328125 C 5.335938 -0.328125 5.507812 -0.347656 5.59375 -0.390625 C 5.6875 -0.441406 5.734375 -0.53125 5.734375 -0.65625 C 5.734375 -0.8125 5.648438 -1.015625 5.484375 -1.265625 L 4.296875 -3.046875 L 3.296875 -1.84375 C 2.910156 -1.375 2.71875 -1.019531 2.71875 -0.78125 C 2.71875 -0.476562 3.003906 -0.328125 3.578125 -0.328125 L 3.578125 0 L 0.359375 0 L 0.359375 -0.328125 C 0.710938 -0.335938 1.019531 -0.398438 1.28125 -0.515625 C 1.539062 -0.640625 1.816406 -0.882812 2.109375 -1.25 L 3.984375 -3.515625 L 1.4375 -7.203125 C 1.257812 -7.453125 1.085938 -7.644531 0.921875 -7.78125 C 0.765625 -7.925781 0.578125 -8 0.359375 -8 L 0.359375 -8.3125 L 4.953125 -8.3125 Z M 4.953125 -8 "/></g></g></g><g fill="#000000" fill-opacity="1"><g transform="translate(331.821356, 71.569263)"><g/></g></g><g fill="#000000" fill-opacity="1"><g transform="translate(336.301433, 71.569263)"><g><path d="M 5.6875 -12.515625 L 5.6875 -11.984375 C 4.75 -11.503906 4.054688 -10.664062 3.609375 -9.46875 C 3.160156 -8.28125 2.9375 -6.640625 2.9375 -4.546875 C 2.9375 -2.328125 3.15625 -0.613281 3.59375 0.59375 C 4.03125 1.800781 4.726562 2.632812 5.6875 3.09375 L 5.6875 3.625 C 4.726562 3.320312 3.859375 2.765625 3.078125 1.953125 C 2.304688 1.148438 1.695312 0.1875 1.25 -0.9375 C 0.8125 -2.070312 0.59375 -3.25 0.59375 -4.46875 C 0.59375 -5.75 0.832031 -6.957031 1.3125 -8.09375 C 1.789062 -9.226562 2.414062 -10.179688 3.1875 -10.953125 C 3.96875 -11.722656 4.800781 -12.242188 5.6875 -12.515625 Z M 5.6875 -12.515625 "/></g></g></g><g fill="#000000" fill-opacity="1"><g transform="translate(342.268891, 71.569263)"><g><path d="M 13.1875 -6.078125 C 13.1875 -4.804688 12.914062 -3.710938 12.375 -2.796875 C 11.832031 -1.878906 11.09375 -1.179688 10.15625 -0.703125 C 9.21875 -0.234375 8.175781 0 7.03125 0 L 0.296875 0 L 0.296875 -0.328125 C 0.742188 -0.328125 1.082031 -0.359375 1.3125 -0.421875 C 1.539062 -0.484375 1.707031 -0.625 1.8125 -0.84375 C 1.925781 -1.0625 1.984375 -1.398438 1.984375 -1.859375 L 1.984375 -10.4375 C 1.984375 -10.894531 1.921875 -11.234375 1.796875 -11.453125 C 1.679688 -11.679688 1.507812 -11.828125 1.28125 -11.890625 C 1.0625 -11.953125 0.734375 -11.984375 0.296875 -11.984375 L 0.296875 -12.3125 L 6.734375 -12.3125 C 7.910156 -12.3125 8.988281 -12.070312 9.96875 -11.59375 C 10.945312 -11.125 11.726562 -10.421875 12.3125 -9.484375 C 12.894531 -8.546875 13.1875 -7.410156 13.1875 -6.078125 Z M 6.234375 -0.625 C 8.742188 -0.625 10 -2.410156 10 -5.984375 C 10 -7.984375 9.632812 -9.429688 8.90625 -10.328125 C 8.1875 -11.234375 7.28125 -11.6875 6.1875 -11.6875 L 4.859375 -11.6875 L 4.859375 -1.828125 C 4.859375 -1.484375 4.894531 -1.226562 4.96875 -1.0625 C 5.050781 -0.894531 5.1875 -0.78125 5.375 -0.71875 C 5.5625 -0.65625 5.847656 -0.625 6.234375 -0.625 Z M 6.234375 -0.625 "/></g></g></g><g fill="#000000" fill-opacity="1"><g transform="translate(356.085447, 71.569263)"><g><path d="M 8.625 -12.515625 L 8.625 -12.171875 C 7.25 -11.921875 6.109375 -11.375 5.203125 -10.53125 C 4.304688 -9.695312 3.722656 -8.617188 3.453125 -7.296875 C 4.046875 -7.628906 4.671875 -7.796875 5.328125 -7.796875 C 5.941406 -7.796875 6.5 -7.632812 7 -7.3125 C 7.507812 -7 7.90625 -6.5625 8.1875 -6 C 8.46875 -5.445312 8.609375 -4.820312 8.609375 -4.125 C 8.609375 -3.289062 8.4375 -2.539062 8.09375 -1.875 C 7.75 -1.21875 7.273438 -0.703125 6.671875 -0.328125 C 6.078125 0.0351562 5.40625 0.21875 4.65625 0.21875 C 3.851562 0.21875 3.132812 0 2.5 -0.4375 C 1.863281 -0.882812 1.363281 -1.5 1 -2.28125 C 0.632812 -3.0625 0.453125 -3.9375 0.453125 -4.90625 C 0.453125 -6.007812 0.734375 -7.128906 1.296875 -8.265625 C 1.867188 -9.410156 2.769531 -10.382812 4 -11.1875 C 5.226562 -12 6.769531 -12.441406 8.625 -12.515625 Z M 3.328125 -6.5625 C 3.242188 -6.113281 3.203125 -5.582031 3.203125 -4.96875 C 3.203125 -3.738281 3.320312 -2.660156 3.5625 -1.734375 C 3.800781 -0.804688 4.234375 -0.34375 4.859375 -0.34375 C 5.273438 -0.34375 5.570312 -0.535156 5.75 -0.921875 C 5.925781 -1.304688 6.015625 -1.890625 6.015625 -2.671875 C 6.015625 -4.160156 5.863281 -5.222656 5.5625 -5.859375 C 5.269531 -6.503906 4.828125 -6.828125 4.234375 -6.828125 C 3.921875 -6.828125 3.617188 -6.738281 3.328125 -6.5625 Z M 3.328125 -6.5625 "/></g></g></g><g fill="#000000" fill-opacity="1"><g transform="translate(365.045601, 71.569263)"><g><path d="M 7.5625 -9.90625 L 2.5625 -9.90625 L 2.125 -8.75 C 3.394531 -8.75 4.5 -8.554688 5.4375 -8.171875 C 6.382812 -7.796875 7.113281 -7.269531 7.625 -6.59375 C 8.144531 -5.914062 8.40625 -5.125 8.40625 -4.21875 C 8.40625 -3.40625 8.179688 -2.65625 7.734375 -1.96875 C 7.285156 -1.289062 6.675781 -0.753906 5.90625 -0.359375 C 5.132812 0.0234375 4.28125 0.21875 3.34375 0.21875 C 2.476562 0.21875 1.769531 0.0859375 1.21875 -0.171875 C 0.675781 -0.441406 0.40625 -0.789062 0.40625 -1.21875 C 0.40625 -1.46875 0.5 -1.6875 0.6875 -1.875 C 0.882812 -2.070312 1.109375 -2.171875 1.359375 -2.171875 C 1.585938 -2.171875 1.816406 -2.113281 2.046875 -2 C 2.273438 -1.894531 2.570312 -1.726562 2.9375 -1.5 C 3.382812 -1.226562 3.753906 -1.023438 4.046875 -0.890625 C 4.347656 -0.765625 4.660156 -0.703125 4.984375 -0.703125 C 5.492188 -0.703125 5.9375 -0.894531 6.3125 -1.28125 C 6.6875 -1.664062 6.875 -2.125 6.875 -2.65625 C 6.875 -3.34375 6.628906 -3.953125 6.140625 -4.484375 C 5.648438 -5.015625 5.007812 -5.421875 4.21875 -5.703125 C 3.4375 -5.992188 2.613281 -6.140625 1.75 -6.140625 L 0.453125 -6.140625 L 2.671875 -12.3125 L 8.515625 -12.3125 Z M 7.5625 -9.90625 "/></g></g></g><g fill="#000000" fill-opacity="1"><g transform="translate(374.005754, 71.569263)"><g><path d="M 5.375 -4.46875 C 5.375 -3.25 5.148438 -2.078125 4.703125 -0.953125 C 4.265625 0.171875 3.660156 1.132812 2.890625 1.9375 C 2.117188 2.75 1.25 3.3125 0.28125 3.625 L 0.28125 3.09375 C 1.226562 2.632812 1.921875 1.804688 2.359375 0.609375 C 2.804688 -0.585938 3.03125 -2.304688 3.03125 -4.546875 C 3.03125 -6.617188 2.804688 -8.253906 2.359375 -9.453125 C 1.921875 -10.660156 1.226562 -11.503906 0.28125 -11.984375 L 0.28125 -12.515625 C 1.164062 -12.242188 1.992188 -11.722656 2.765625 -10.953125 C 3.546875 -10.179688 4.175781 -9.226562 4.65625 -8.09375 C 5.132812 -6.957031 5.375 -5.75 5.375 -4.46875 Z M 5.375 -4.46875 "/></g></g></g><g clip-path="url(#97f302e211)"><path stroke-linecap="butt" transform="matrix(0.746681, 0, 0, 0.746681, 431.50754, 17.809898)" fill="none" stroke-linejoin="miter" d="M 0.000365318 -0.00174687 L 191.216259 -0.00174687 L 191.216259 102.294649 L 0.000365318 102.294649 Z M 0.000365318 -0.00174687 " stroke="#000000" stroke-width="6" stroke-opacity="1" stroke-miterlimit="4"/></g><g fill="#000000" fill-opacity="1"><g transform="translate(454.537993, 46.928778)"><g><path d="M 13.1875 -6.078125 C 13.1875 -4.804688 12.914062 -3.710938 12.375 -2.796875 C 11.832031 -1.878906 11.09375 -1.179688 10.15625 -0.703125 C 9.21875 -0.234375 8.175781 0 7.03125 0 L 0.296875 0 L 0.296875 -0.328125 C 0.742188 -0.328125 1.082031 -0.359375 1.3125 -0.421875 C 1.539062 -0.484375 1.707031 -0.625 1.8125 -0.84375 C 1.925781 -1.0625 1.984375 -1.398438 1.984375 -1.859375 L 1.984375 -10.4375 C 1.984375 -10.894531 1.921875 -11.234375 1.796875 -11.453125 C 1.679688 -11.679688 1.507812 -11.828125 1.28125 -11.890625 C 1.0625 -11.953125 0.734375 -11.984375 0.296875 -11.984375 L 0.296875 -12.3125 L 6.734375 -12.3125 C 7.910156 -12.3125 8.988281 -12.070312 9.96875 -11.59375 C 10.945312 -11.125 11.726562 -10.421875 12.3125 -9.484375 C 12.894531 -8.546875 13.1875 -7.410156 13.1875 -6.078125 Z M 6.234375 -0.625 C 8.742188 -0.625 10 -2.410156 10 -5.984375 C 10 -7.984375 9.632812 -9.429688 8.90625 -10.328125 C 8.1875 -11.234375 7.28125 -11.6875 6.1875 -11.6875 L 4.859375 -11.6875 L 4.859375 -1.828125 C 4.859375 -1.484375 4.894531 -1.226562 4.96875 -1.0625 C 5.050781 -0.894531 5.1875 -0.78125 5.375 -0.71875 C 5.5625 -0.65625 5.847656 -0.625 6.234375 -0.625 Z M 6.234375 -0.625 "/></g></g></g><g fill="#000000" fill-opacity="1"><g transform="translate(468.354549, 46.928778)"><g><path d="M 7.5625 -9.90625 L 2.5625 -9.90625 L 2.125 -8.75 C 3.394531 -8.75 4.5 -8.554688 5.4375 -8.171875 C 6.382812 -7.796875 7.113281 -7.269531 7.625 -6.59375 C 8.144531 -5.914062 8.40625 -5.125 8.40625 -4.21875 C 8.40625 -3.40625 8.179688 -2.65625 7.734375 -1.96875 C 7.285156 -1.289062 6.675781 -0.753906 5.90625 -0.359375 C 5.132812 0.0234375 4.28125 0.21875 3.34375 0.21875 C 2.476562 0.21875 1.769531 0.0859375 1.21875 -0.171875 C 0.675781 -0.441406 0.40625 -0.789062 0.40625 -1.21875 C 0.40625 -1.46875 0.5 -1.6875 0.6875 -1.875 C 0.882812 -2.070312 1.109375 -2.171875 1.359375 -2.171875 C 1.585938 -2.171875 1.816406 -2.113281 2.046875 -2 C 2.273438 -1.894531 2.570312 -1.726562 2.9375 -1.5 C 3.382812 -1.226562 3.753906 -1.023438 4.046875 -0.890625 C 4.347656 -0.765625 4.660156 -0.703125 4.984375 -0.703125 C 5.492188 -0.703125 5.9375 -0.894531 6.3125 -1.28125 C 6.6875 -1.664062 6.875 -2.125 6.875 -2.65625 C 6.875 -3.34375 6.628906 -3.953125 6.140625 -4.484375 C 5.648438 -5.015625 5.007812 -5.421875 4.21875 -5.703125 C 3.4375 -5.992188 2.613281 -6.140625 1.75 -6.140625 L 0.453125 -6.140625 L 2.671875 -12.3125 L 8.515625 -12.3125 Z M 7.5625 -9.90625 "/></g></g></g><g fill="#000000" fill-opacity="1"><g transform="translate(477.314703, 46.928778)"><g><path d="M 4.484375 -12.515625 C 5.148438 -12.515625 5.789062 -12.296875 6.40625 -11.859375 C 7.03125 -11.429688 7.539062 -10.742188 7.9375 -9.796875 C 8.34375 -8.847656 8.546875 -7.628906 8.546875 -6.140625 C 8.546875 -4.878906 8.375 -3.765625 8.03125 -2.796875 C 7.695312 -1.835938 7.222656 -1.09375 6.609375 -0.5625 C 5.992188 -0.0390625 5.28125 0.21875 4.46875 0.21875 C 3.675781 0.21875 2.972656 -0.046875 2.359375 -0.578125 C 1.742188 -1.109375 1.265625 -1.851562 0.921875 -2.8125 C 0.578125 -3.78125 0.40625 -4.882812 0.40625 -6.125 C 0.40625 -7.351562 0.578125 -8.453125 0.921875 -9.421875 C 1.273438 -10.390625 1.757812 -11.144531 2.375 -11.6875 C 2.988281 -12.238281 3.691406 -12.515625 4.484375 -12.515625 Z M 4.515625 -0.34375 C 4.816406 -0.34375 5.054688 -0.429688 5.234375 -0.609375 C 5.410156 -0.796875 5.546875 -1.144531 5.640625 -1.65625 C 5.734375 -2.164062 5.78125 -2.890625 5.78125 -3.828125 L 5.78125 -8.296875 C 5.78125 -9.296875 5.75 -10.050781 5.6875 -10.5625 C 5.625 -11.070312 5.5 -11.429688 5.3125 -11.640625 C 5.125 -11.847656 4.851562 -11.953125 4.5 -11.953125 C 4.15625 -11.953125 3.882812 -11.828125 3.6875 -11.578125 C 3.5 -11.335938 3.363281 -10.9375 3.28125 -10.375 C 3.207031 -9.820312 3.171875 -9.046875 3.171875 -8.046875 L 3.171875 -4.21875 C 3.171875 -3.1875 3.207031 -2.398438 3.28125 -1.859375 C 3.363281 -1.316406 3.5 -0.925781 3.6875 -0.6875 C 3.882812 -0.457031 4.160156 -0.34375 4.515625 -0.34375 Z M 4.515625 -0.34375 "/></g></g></g><g fill="#000000" fill-opacity="1"><g transform="translate(486.274856, 46.928778)"><g/></g></g><g fill="#000000" fill-opacity="1"><g transform="translate(490.754933, 46.928778)"><g><path d="M 7.21875 -12.578125 C 7.84375 -12.578125 8.359375 -12.523438 8.765625 -12.421875 C 9.171875 -12.316406 9.609375 -12.164062 10.078125 -11.96875 C 10.117188 -11.945312 10.238281 -11.894531 10.4375 -11.8125 C 10.632812 -11.738281 10.8125 -11.703125 10.96875 -11.703125 C 11.425781 -11.703125 11.707031 -11.988281 11.8125 -12.5625 L 12.171875 -12.5625 L 12.171875 -8.4375 L 11.8125 -8.4375 C 11.71875 -9.125 11.472656 -9.71875 11.078125 -10.21875 C 10.691406 -10.726562 10.222656 -11.117188 9.671875 -11.390625 C 9.128906 -11.660156 8.570312 -11.796875 8 -11.796875 C 7.1875 -11.796875 6.476562 -11.550781 5.875 -11.0625 C 5.269531 -10.582031 4.804688 -9.910156 4.484375 -9.046875 C 4.171875 -8.191406 4.015625 -7.21875 4.015625 -6.125 C 4.015625 -4.375 4.359375 -3 5.046875 -2 C 5.742188 -1 6.703125 -0.5 7.921875 -0.5 C 8.703125 -0.5 9.398438 -0.679688 10.015625 -1.046875 C 10.640625 -1.421875 11.273438 -1.984375 11.921875 -2.734375 L 11.921875 -1.75 C 11.253906 -1.050781 10.554688 -0.539062 9.828125 -0.21875 C 9.109375 0.09375 8.28125 0.25 7.34375 0.25 C 6.03125 0.25 4.878906 -0.0195312 3.890625 -0.5625 C 2.910156 -1.113281 2.15625 -1.863281 1.625 -2.8125 C 1.09375 -3.757812 0.828125 -4.804688 0.828125 -5.953125 C 0.828125 -7.128906 1.113281 -8.222656 1.6875 -9.234375 C 2.269531 -10.253906 3.050781 -11.066406 4.03125 -11.671875 C 5.007812 -12.273438 6.070312 -12.578125 7.21875 -12.578125 Z M 7.21875 -12.578125 "/></g></g></g><g fill="#000000" fill-opacity="1"><g transform="translate(503.63963, 46.928778)"><g><path d="M 3.5 -7.203125 L 3.53125 -7.203125 C 4.175781 -8.078125 4.945312 -8.515625 5.84375 -8.515625 C 6.613281 -8.515625 7.175781 -8.257812 7.53125 -7.75 C 7.894531 -7.25 8.078125 -6.613281 8.078125 -5.84375 L 8.078125 -1.25 C 8.078125 -1.039062 8.132812 -0.847656 8.25 -0.671875 C 8.375 -0.492188 8.539062 -0.378906 8.75 -0.328125 L 8.75 0 L 4.875 0 L 4.875 -0.328125 C 5.144531 -0.398438 5.335938 -0.507812 5.453125 -0.65625 C 5.566406 -0.800781 5.625 -1.070312 5.625 -1.46875 L 5.625 -6.234375 C 5.625 -6.972656 5.367188 -7.34375 4.859375 -7.34375 C 4.640625 -7.34375 4.421875 -7.257812 4.203125 -7.09375 C 3.992188 -6.9375 3.757812 -6.675781 3.5 -6.3125 L 3.5 -1.453125 C 3.5 -1.109375 3.550781 -0.84375 3.65625 -0.65625 C 3.769531 -0.476562 3.960938 -0.367188 4.234375 -0.328125 L 4.234375 0 L 0.296875 0 L 0.296875 -0.328125 C 0.515625 -0.378906 0.671875 -0.445312 0.765625 -0.53125 C 0.859375 -0.613281 0.925781 -0.75 0.96875 -0.9375 C 1.019531 -1.125 1.046875 -1.410156 1.046875 -1.796875 L 1.046875 -10.9375 C 1.046875 -11.289062 0.976562 -11.539062 0.84375 -11.6875 C 0.707031 -11.84375 0.523438 -11.941406 0.296875 -11.984375 L 0.296875 -12.3125 L 3.5 -12.3125 Z M 3.5 -7.203125 "/></g></g></g><g fill="#000000" fill-opacity="1"><g transform="translate(512.599784, 46.928778)"><g><path d="M 5.5625 -8.515625 C 5.84375 -8.515625 6.070312 -8.398438 6.25 -8.171875 C 6.4375 -7.953125 6.53125 -7.671875 6.53125 -7.328125 C 6.53125 -6.960938 6.4375 -6.664062 6.25 -6.4375 C 6.070312 -6.207031 5.828125 -6.09375 5.515625 -6.09375 C 5.378906 -6.09375 5.253906 -6.117188 5.140625 -6.171875 C 5.035156 -6.234375 4.90625 -6.320312 4.75 -6.4375 C 4.519531 -6.59375 4.351562 -6.671875 4.25 -6.671875 C 4.050781 -6.671875 3.882812 -6.515625 3.75 -6.203125 C 3.625 -5.890625 3.5625 -5.535156 3.5625 -5.140625 L 3.5625 -1.421875 C 3.5625 -1.023438 3.640625 -0.742188 3.796875 -0.578125 C 3.953125 -0.410156 4.234375 -0.328125 4.640625 -0.328125 L 4.640625 0 L 0.203125 0 L 0.203125 -0.328125 C 0.804688 -0.328125 1.109375 -0.679688 1.109375 -1.390625 L 1.109375 -6.921875 C 1.109375 -7.617188 0.804688 -7.976562 0.203125 -8 L 0.203125 -8.3125 L 3.5625 -8.3125 L 3.5625 -6.828125 L 3.609375 -6.828125 C 4.160156 -7.953125 4.8125 -8.515625 5.5625 -8.515625 Z M 5.5625 -8.515625 "/></g></g></g><g fill="#000000" fill-opacity="1"><g transform="translate(519.499101, 46.928778)"><g><path d="M 4.4375 -8.515625 C 5.164062 -8.515625 5.832031 -8.335938 6.4375 -7.984375 C 7.039062 -7.640625 7.523438 -7.132812 7.890625 -6.46875 C 8.253906 -5.8125 8.4375 -5.023438 8.4375 -4.109375 C 8.4375 -3.128906 8.234375 -2.3125 7.828125 -1.65625 C 7.421875 -1.007812 6.914062 -0.53125 6.3125 -0.21875 C 5.707031 0.09375 5.109375 0.25 4.515625 0.25 C 3.859375 0.25 3.222656 0.0820312 2.609375 -0.25 C 1.992188 -0.59375 1.488281 -1.097656 1.09375 -1.765625 C 0.707031 -2.429688 0.515625 -3.226562 0.515625 -4.15625 C 0.515625 -4.988281 0.679688 -5.734375 1.015625 -6.390625 C 1.347656 -7.054688 1.8125 -7.578125 2.40625 -7.953125 C 3.007812 -8.328125 3.6875 -8.515625 4.4375 -8.515625 Z M 3.09375 -4.515625 C 3.09375 -3.441406 3.128906 -2.613281 3.203125 -2.03125 C 3.273438 -1.457031 3.410156 -1.035156 3.609375 -0.765625 C 3.804688 -0.503906 4.097656 -0.375 4.484375 -0.375 C 4.828125 -0.375 5.097656 -0.476562 5.296875 -0.6875 C 5.503906 -0.90625 5.648438 -1.253906 5.734375 -1.734375 C 5.816406 -2.222656 5.859375 -2.890625 5.859375 -3.734375 C 5.859375 -4.804688 5.828125 -5.625 5.765625 -6.1875 C 5.710938 -6.757812 5.582031 -7.1875 5.375 -7.46875 C 5.175781 -7.75 4.863281 -7.890625 4.4375 -7.890625 C 3.914062 -7.890625 3.5625 -7.601562 3.375 -7.03125 C 3.1875 -6.46875 3.09375 -5.628906 3.09375 -4.515625 Z M 3.09375 -4.515625 "/></g></g></g><g fill="#000000" fill-opacity="1"><g transform="translate(528.459254, 46.928778)"><g><path d="M 5.9375 -8.515625 C 6.476562 -8.515625 6.929688 -8.378906 7.296875 -8.109375 C 7.660156 -7.835938 7.898438 -7.460938 8.015625 -6.984375 C 8.347656 -7.472656 8.738281 -7.847656 9.1875 -8.109375 C 9.644531 -8.378906 10.117188 -8.515625 10.609375 -8.515625 C 11.316406 -8.515625 11.851562 -8.289062 12.21875 -7.84375 C 12.59375 -7.40625 12.78125 -6.867188 12.78125 -6.234375 L 12.78125 -1.265625 C 12.78125 -0.992188 12.84375 -0.769531 12.96875 -0.59375 C 13.09375 -0.425781 13.289062 -0.335938 13.5625 -0.328125 L 13.5625 0 L 9.546875 0 L 9.546875 -0.328125 C 9.859375 -0.335938 10.066406 -0.414062 10.171875 -0.5625 C 10.273438 -0.707031 10.328125 -0.972656 10.328125 -1.359375 L 10.328125 -6.4375 C 10.328125 -6.625 10.269531 -6.820312 10.15625 -7.03125 C 10.050781 -7.238281 9.867188 -7.34375 9.609375 -7.34375 C 9.359375 -7.34375 9.125 -7.257812 8.90625 -7.09375 C 8.6875 -6.9375 8.4375 -6.65625 8.15625 -6.25 L 8.15625 -1.390625 C 8.15625 -0.753906 8.410156 -0.398438 8.921875 -0.328125 L 8.921875 0 L 4.953125 0 L 4.953125 -0.328125 C 5.453125 -0.378906 5.703125 -0.753906 5.703125 -1.453125 L 5.703125 -6.34375 C 5.703125 -6.613281 5.640625 -6.84375 5.515625 -7.03125 C 5.398438 -7.226562 5.203125 -7.328125 4.921875 -7.328125 C 4.460938 -7.328125 4 -6.96875 3.53125 -6.25 L 3.53125 -1.421875 C 3.53125 -0.765625 3.789062 -0.398438 4.3125 -0.328125 L 4.3125 0 L 0.25 0 L 0.25 -0.328125 C 0.539062 -0.359375 0.75 -0.453125 0.875 -0.609375 C 1.007812 -0.773438 1.078125 -1.0625 1.078125 -1.46875 L 1.078125 -6.796875 C 1.078125 -7.222656 1.003906 -7.519531 0.859375 -7.6875 C 0.710938 -7.863281 0.507812 -7.96875 0.25 -8 L 0.25 -8.3125 L 3.53125 -8.3125 L 3.53125 -7.15625 L 3.5625 -7.15625 C 3.9375 -7.632812 4.3125 -7.976562 4.6875 -8.1875 C 5.070312 -8.40625 5.488281 -8.515625 5.9375 -8.515625 Z M 5.9375 -8.515625 "/></g></g></g><g fill="#000000" fill-opacity="1"><g transform="translate(542.27581, 46.928778)"><g><path d="M 4.546875 -8.515625 C 5.578125 -8.515625 6.332031 -8.304688 6.8125 -7.890625 C 7.289062 -7.472656 7.53125 -6.941406 7.53125 -6.296875 L 7.53125 -1.859375 C 7.53125 -1.203125 7.695312 -0.875 8.03125 -0.875 C 8.125 -0.875 8.203125 -0.898438 8.265625 -0.953125 C 8.335938 -1.015625 8.414062 -1.109375 8.5 -1.234375 L 8.65625 -1.078125 C 8.488281 -0.671875 8.222656 -0.347656 7.859375 -0.109375 C 7.503906 0.128906 7.109375 0.25 6.671875 0.25 C 6.210938 0.25 5.84375 0.132812 5.5625 -0.09375 C 5.28125 -0.320312 5.117188 -0.65625 5.078125 -1.09375 C 5.003906 -1.039062 4.894531 -0.957031 4.75 -0.84375 C 4.332031 -0.5 3.941406 -0.226562 3.578125 -0.03125 C 3.222656 0.15625 2.8125 0.25 2.34375 0.25 C 1.882812 0.25 1.492188 0.0820312 1.171875 -0.25 C 0.859375 -0.582031 0.703125 -0.988281 0.703125 -1.46875 C 0.703125 -2.09375 0.972656 -2.648438 1.515625 -3.140625 C 2.054688 -3.628906 2.648438 -4.019531 3.296875 -4.3125 L 5.078125 -5.171875 L 5.078125 -6.8125 C 5.078125 -7.113281 4.984375 -7.367188 4.796875 -7.578125 C 4.609375 -7.785156 4.316406 -7.890625 3.921875 -7.890625 C 3.578125 -7.890625 3.285156 -7.816406 3.046875 -7.671875 C 2.816406 -7.523438 2.703125 -7.351562 2.703125 -7.15625 C 2.703125 -7.082031 2.722656 -7.007812 2.765625 -6.9375 C 2.804688 -6.863281 2.859375 -6.789062 2.921875 -6.71875 C 3.023438 -6.59375 3.109375 -6.46875 3.171875 -6.34375 C 3.234375 -6.226562 3.265625 -6.09375 3.265625 -5.9375 C 3.265625 -5.644531 3.15625 -5.410156 2.9375 -5.234375 C 2.71875 -5.054688 2.4375 -4.96875 2.09375 -4.96875 C 1.707031 -4.96875 1.394531 -5.066406 1.15625 -5.265625 C 0.925781 -5.472656 0.8125 -5.742188 0.8125 -6.078125 C 0.8125 -6.503906 0.976562 -6.90625 1.3125 -7.28125 C 1.65625 -7.65625 2.113281 -7.953125 2.6875 -8.171875 C 3.257812 -8.398438 3.878906 -8.515625 4.546875 -8.515625 Z M 3.140625 -2.234375 C 3.140625 -1.953125 3.21875 -1.71875 3.375 -1.53125 C 3.539062 -1.351562 3.75 -1.265625 4 -1.265625 C 4.195312 -1.265625 4.375 -1.300781 4.53125 -1.375 C 4.695312 -1.445312 4.878906 -1.5625 5.078125 -1.71875 L 5.078125 -4.546875 C 3.785156 -3.890625 3.140625 -3.117188 3.140625 -2.234375 Z M 3.140625 -2.234375 "/></g></g></g><g fill="#000000" fill-opacity="1"><g transform="translate(468.631604, 71.569263)"><g><path d="M 2.28125 -2.453125 L 6.4375 -12.515625 L 6.609375 -12.515625 L 10.75 -2.421875 C 11.03125 -1.734375 11.300781 -1.210938 11.5625 -0.859375 C 11.832031 -0.503906 12.179688 -0.328125 12.609375 -0.328125 L 12.609375 0 L 6.859375 0 L 6.859375 -0.328125 C 7.429688 -0.335938 7.8125 -0.378906 8 -0.453125 C 8.195312 -0.535156 8.296875 -0.710938 8.296875 -0.984375 C 8.296875 -1.066406 8.273438 -1.160156 8.234375 -1.265625 C 8.191406 -1.378906 8.160156 -1.472656 8.140625 -1.546875 L 7.359375 -3.484375 L 3.421875 -3.484375 L 2.875 -2.125 C 2.695312 -1.789062 2.609375 -1.5 2.609375 -1.25 C 2.609375 -0.882812 2.742188 -0.640625 3.015625 -0.515625 C 3.296875 -0.390625 3.6875 -0.328125 4.1875 -0.328125 L 4.1875 0 L 0.25 0 L 0.25 -0.328125 C 0.65625 -0.359375 1.019531 -0.539062 1.34375 -0.875 C 1.664062 -1.207031 1.976562 -1.734375 2.28125 -2.453125 Z M 7.09375 -4.140625 L 5.390625 -8.265625 L 3.6875 -4.140625 Z M 7.09375 -4.140625 "/></g></g></g><g fill="#000000" fill-opacity="1"><g transform="translate(481.516301, 71.569263)"><g><path d="M 7.703125 -1.84375 C 7.703125 -1.457031 7.773438 -1.1875 7.921875 -1.03125 C 8.066406 -0.882812 8.335938 -0.8125 8.734375 -0.8125 L 8.734375 -0.484375 L 5.25 0.234375 L 5.25 -0.96875 L 5.21875 -0.96875 C 5.019531 -0.570312 4.753906 -0.269531 4.421875 -0.0625 C 4.097656 0.144531 3.75 0.25 3.375 0.25 C 2.800781 0.25 2.289062 0.0625 1.84375 -0.3125 C 1.394531 -0.695312 1.039062 -1.226562 0.78125 -1.90625 C 0.53125 -2.59375 0.40625 -3.367188 0.40625 -4.234375 C 0.40625 -5.128906 0.554688 -5.898438 0.859375 -6.546875 C 1.171875 -7.203125 1.566406 -7.691406 2.046875 -8.015625 C 2.523438 -8.347656 3.019531 -8.515625 3.53125 -8.515625 C 3.863281 -8.515625 4.164062 -8.441406 4.4375 -8.296875 C 4.707031 -8.160156 4.976562 -7.941406 5.25 -7.640625 L 5.25 -10.921875 C 5.25 -11.347656 5.15625 -11.628906 4.96875 -11.765625 C 4.789062 -11.898438 4.476562 -11.972656 4.03125 -11.984375 L 4.03125 -12.3125 L 7.703125 -12.3125 Z M 3 -4.515625 C 3 -3.304688 3.085938 -2.390625 3.265625 -1.765625 C 3.441406 -1.148438 3.738281 -0.84375 4.15625 -0.84375 C 4.550781 -0.84375 4.914062 -1.195312 5.25 -1.90625 L 5.25 -6.59375 C 5.050781 -7 4.847656 -7.28125 4.640625 -7.4375 C 4.441406 -7.601562 4.222656 -7.6875 3.984375 -7.6875 C 3.597656 -7.6875 3.335938 -7.414062 3.203125 -6.875 C 3.066406 -6.332031 3 -5.546875 3 -4.515625 Z M 3 -4.515625 "/></g></g></g><g fill="#000000" fill-opacity="1"><g transform="translate(490.476454, 71.569263)"><g><path d="M 4.546875 -8.515625 C 5.578125 -8.515625 6.332031 -8.304688 6.8125 -7.890625 C 7.289062 -7.472656 7.53125 -6.941406 7.53125 -6.296875 L 7.53125 -1.859375 C 7.53125 -1.203125 7.695312 -0.875 8.03125 -0.875 C 8.125 -0.875 8.203125 -0.898438 8.265625 -0.953125 C 8.335938 -1.015625 8.414062 -1.109375 8.5 -1.234375 L 8.65625 -1.078125 C 8.488281 -0.671875 8.222656 -0.347656 7.859375 -0.109375 C 7.503906 0.128906 7.109375 0.25 6.671875 0.25 C 6.210938 0.25 5.84375 0.132812 5.5625 -0.09375 C 5.28125 -0.320312 5.117188 -0.65625 5.078125 -1.09375 C 5.003906 -1.039062 4.894531 -0.957031 4.75 -0.84375 C 4.332031 -0.5 3.941406 -0.226562 3.578125 -0.03125 C 3.222656 0.15625 2.8125 0.25 2.34375 0.25 C 1.882812 0.25 1.492188 0.0820312 1.171875 -0.25 C 0.859375 -0.582031 0.703125 -0.988281 0.703125 -1.46875 C 0.703125 -2.09375 0.972656 -2.648438 1.515625 -3.140625 C 2.054688 -3.628906 2.648438 -4.019531 3.296875 -4.3125 L 5.078125 -5.171875 L 5.078125 -6.8125 C 5.078125 -7.113281 4.984375 -7.367188 4.796875 -7.578125 C 4.609375 -7.785156 4.316406 -7.890625 3.921875 -7.890625 C 3.578125 -7.890625 3.285156 -7.816406 3.046875 -7.671875 C 2.816406 -7.523438 2.703125 -7.351562 2.703125 -7.15625 C 2.703125 -7.082031 2.722656 -7.007812 2.765625 -6.9375 C 2.804688 -6.863281 2.859375 -6.789062 2.921875 -6.71875 C 3.023438 -6.59375 3.109375 -6.46875 3.171875 -6.34375 C 3.234375 -6.226562 3.265625 -6.09375 3.265625 -5.9375 C 3.265625 -5.644531 3.15625 -5.410156 2.9375 -5.234375 C 2.71875 -5.054688 2.4375 -4.96875 2.09375 -4.96875 C 1.707031 -4.96875 1.394531 -5.066406 1.15625 -5.265625 C 0.925781 -5.472656 0.8125 -5.742188 0.8125 -6.078125 C 0.8125 -6.503906 0.976562 -6.90625 1.3125 -7.28125 C 1.65625 -7.65625 2.113281 -7.953125 2.6875 -8.171875 C 3.257812 -8.398438 3.878906 -8.515625 4.546875 -8.515625 Z M 3.140625 -2.234375 C 3.140625 -1.953125 3.21875 -1.71875 3.375 -1.53125 C 3.539062 -1.351562 3.75 -1.265625 4 -1.265625 C 4.195312 -1.265625 4.375 -1.300781 4.53125 -1.375 C 4.695312 -1.445312 4.878906 -1.5625 5.078125 -1.71875 L 5.078125 -4.546875 C 3.785156 -3.890625 3.140625 -3.117188 3.140625 -2.234375 Z M 3.140625 -2.234375 "/></g></g></g><g fill="#000000" fill-opacity="1"><g transform="translate(499.436608, 71.569263)"><g><path d="M 5.640625 -8.515625 C 6.191406 -8.515625 6.6875 -8.320312 7.125 -7.9375 C 7.5625 -7.550781 7.90625 -7.023438 8.15625 -6.359375 C 8.40625 -5.703125 8.53125 -4.957031 8.53125 -4.125 C 8.53125 -3.144531 8.363281 -2.328125 8.03125 -1.671875 C 7.707031 -1.015625 7.304688 -0.53125 6.828125 -0.21875 C 6.359375 0.09375 5.898438 0.25 5.453125 0.25 C 4.734375 0.25 4.164062 -0.0664062 3.75 -0.703125 L 3.703125 -0.703125 L 3.703125 2.421875 C 3.703125 2.828125 3.789062 3.097656 3.96875 3.234375 C 4.144531 3.378906 4.476562 3.460938 4.96875 3.484375 L 4.96875 3.796875 L 0.265625 3.796875 L 0.265625 3.484375 C 0.609375 3.484375 0.859375 3.394531 1.015625 3.21875 C 1.171875 3.050781 1.25 2.78125 1.25 2.40625 L 1.25 -6.921875 C 1.25 -7.316406 1.164062 -7.59375 1 -7.75 C 0.84375 -7.914062 0.597656 -8 0.265625 -8 L 0.265625 -8.3125 L 3.703125 -8.3125 L 3.703125 -7.328125 L 3.75 -7.328125 C 4.226562 -8.117188 4.859375 -8.515625 5.640625 -8.515625 Z M 3.703125 -6.375 L 3.703125 -1.484375 C 4.171875 -0.898438 4.585938 -0.609375 4.953125 -0.609375 C 5.328125 -0.609375 5.585938 -0.859375 5.734375 -1.359375 C 5.878906 -1.867188 5.953125 -2.753906 5.953125 -4.015625 C 5.953125 -5.222656 5.863281 -6.09375 5.6875 -6.625 C 5.519531 -7.164062 5.234375 -7.4375 4.828125 -7.4375 C 4.609375 -7.4375 4.394531 -7.328125 4.1875 -7.109375 C 3.988281 -6.898438 3.828125 -6.65625 3.703125 -6.375 Z M 3.703125 -6.375 "/></g></g></g><g fill="#000000" fill-opacity="1"><g transform="translate(508.396761, 71.569263)"><g><path d="M 3.484375 -11.3125 L 3.78125 -11.3125 L 3.78125 -8.3125 L 5.6875 -8.3125 L 5.6875 -7.421875 L 3.78125 -7.421875 L 3.78125 -1.6875 C 3.78125 -1.457031 3.828125 -1.242188 3.921875 -1.046875 C 4.015625 -0.859375 4.179688 -0.765625 4.421875 -0.765625 C 4.828125 -0.765625 5.175781 -1.046875 5.46875 -1.609375 L 5.6875 -1.328125 C 5.207031 -0.273438 4.445312 0.25 3.40625 0.25 C 2.738281 0.25 2.222656 0.0390625 1.859375 -0.375 C 1.503906 -0.789062 1.328125 -1.300781 1.328125 -1.90625 L 1.328125 -7.421875 L 0.296875 -7.421875 L 0.296875 -7.75 C 0.878906 -8.15625 1.503906 -8.734375 2.171875 -9.484375 C 2.835938 -10.234375 3.273438 -10.84375 3.484375 -11.3125 Z M 3.484375 -11.3125 "/></g></g></g><g fill="#000000" fill-opacity="1"><g transform="translate(514.364219, 71.569263)"><g><path d="M 2.53125 -12.578125 C 2.90625 -12.578125 3.226562 -12.441406 3.5 -12.171875 C 3.769531 -11.910156 3.90625 -11.585938 3.90625 -11.203125 C 3.90625 -10.816406 3.769531 -10.484375 3.5 -10.203125 C 3.226562 -9.929688 2.90625 -9.796875 2.53125 -9.796875 C 2.144531 -9.796875 1.8125 -9.929688 1.53125 -10.203125 C 1.257812 -10.484375 1.125 -10.816406 1.125 -11.203125 C 1.125 -11.585938 1.257812 -11.910156 1.53125 -12.171875 C 1.8125 -12.441406 2.144531 -12.578125 2.53125 -12.578125 Z M 3.703125 -1.359375 C 3.703125 -0.679688 4.003906 -0.335938 4.609375 -0.328125 L 4.609375 0 L 0.21875 0 L 0.21875 -0.328125 C 0.582031 -0.328125 0.84375 -0.410156 1 -0.578125 C 1.164062 -0.742188 1.25 -1.035156 1.25 -1.453125 L 1.25 -6.875 C 1.25 -7.269531 1.171875 -7.554688 1.015625 -7.734375 C 0.859375 -7.910156 0.59375 -8 0.21875 -8 L 0.21875 -8.3125 L 3.703125 -8.3125 Z M 3.703125 -1.359375 "/></g></g></g><g fill="#000000" fill-opacity="1"><g transform="translate(519.220622, 71.569263)"><g><path d="M 4.4375 -8.515625 C 5.164062 -8.515625 5.832031 -8.335938 6.4375 -7.984375 C 7.039062 -7.640625 7.523438 -7.132812 7.890625 -6.46875 C 8.253906 -5.8125 8.4375 -5.023438 8.4375 -4.109375 C 8.4375 -3.128906 8.234375 -2.3125 7.828125 -1.65625 C 7.421875 -1.007812 6.914062 -0.53125 6.3125 -0.21875 C 5.707031 0.09375 5.109375 0.25 4.515625 0.25 C 3.859375 0.25 3.222656 0.0820312 2.609375 -0.25 C 1.992188 -0.59375 1.488281 -1.097656 1.09375 -1.765625 C 0.707031 -2.429688 0.515625 -3.226562 0.515625 -4.15625 C 0.515625 -4.988281 0.679688 -5.734375 1.015625 -6.390625 C 1.347656 -7.054688 1.8125 -7.578125 2.40625 -7.953125 C 3.007812 -8.328125 3.6875 -8.515625 4.4375 -8.515625 Z M 3.09375 -4.515625 C 3.09375 -3.441406 3.128906 -2.613281 3.203125 -2.03125 C 3.273438 -1.457031 3.410156 -1.035156 3.609375 -0.765625 C 3.804688 -0.503906 4.097656 -0.375 4.484375 -0.375 C 4.828125 -0.375 5.097656 -0.476562 5.296875 -0.6875 C 5.503906 -0.90625 5.648438 -1.253906 5.734375 -1.734375 C 5.816406 -2.222656 5.859375 -2.890625 5.859375 -3.734375 C 5.859375 -4.804688 5.828125 -5.625 5.765625 -6.1875 C 5.710938 -6.757812 5.582031 -7.1875 5.375 -7.46875 C 5.175781 -7.75 4.863281 -7.890625 4.4375 -7.890625 C 3.914062 -7.890625 3.5625 -7.601562 3.375 -7.03125 C 3.1875 -6.46875 3.09375 -5.628906 3.09375 -4.515625 Z M 3.09375 -4.515625 "/></g></g></g><g fill="#000000" fill-opacity="1"><g transform="translate(528.180776, 71.569263)"><g><path d="M 5.84375 -8.515625 C 6.5625 -8.515625 7.109375 -8.269531 7.484375 -7.78125 C 7.859375 -7.300781 8.046875 -6.707031 8.046875 -6 L 8.046875 -1.71875 C 8.046875 -1.375 8.0625 -1.117188 8.09375 -0.953125 C 8.125 -0.796875 8.175781 -0.675781 8.25 -0.59375 C 8.332031 -0.507812 8.46875 -0.421875 8.65625 -0.328125 L 8.65625 0 L 4.84375 0 L 4.84375 -0.328125 C 5.34375 -0.378906 5.59375 -0.757812 5.59375 -1.46875 L 5.59375 -6.125 C 5.59375 -6.945312 5.328125 -7.359375 4.796875 -7.359375 C 4.335938 -7.359375 3.882812 -7.019531 3.4375 -6.34375 L 3.4375 -1.359375 C 3.4375 -0.765625 3.6875 -0.421875 4.1875 -0.328125 L 4.1875 0 L 0.296875 0 L 0.296875 -0.328125 C 0.515625 -0.367188 0.679688 -0.472656 0.796875 -0.640625 C 0.921875 -0.804688 0.984375 -1.078125 0.984375 -1.453125 L 0.984375 -6.921875 C 0.984375 -7.160156 0.929688 -7.382812 0.828125 -7.59375 C 0.734375 -7.800781 0.554688 -7.9375 0.296875 -8 L 0.296875 -8.3125 L 3.4375 -8.3125 L 3.4375 -7.203125 C 3.820312 -7.648438 4.203125 -7.976562 4.578125 -8.1875 C 4.960938 -8.40625 5.382812 -8.515625 5.84375 -8.515625 Z M 5.84375 -8.515625 "/></g></g></g><g clip-path="url(#2663407333)"><path stroke-linecap="butt" transform="matrix(0.746681, 0, 0, 0.746681, 605.658842, 17.80836)" fill="none" stroke-linejoin="miter" d="M 0.00176077 0.000313607 L 174.403682 0.000313607 L 174.403682 102.296716 L 0.00176077 102.296716 Z M 0.00176077 0.000313607 " stroke="#000000" stroke-width="6" stroke-opacity="1" stroke-miterlimit="4"/></g><g fill="#000000" fill-opacity="1"><g transform="translate(628.560959, 59.622361)"><g><path d="M 6.203125 -11.984375 C 5.742188 -11.972656 5.425781 -11.9375 5.25 -11.875 C 5.082031 -11.820312 5 -11.679688 5 -11.453125 C 5 -11.210938 5.101562 -10.929688 5.3125 -10.609375 L 7.09375 -7.78125 L 8.515625 -9.671875 C 8.953125 -10.296875 9.171875 -10.757812 9.171875 -11.0625 C 9.171875 -11.675781 8.738281 -11.984375 7.875 -11.984375 L 7.875 -12.3125 L 12.1875 -12.3125 L 12.1875 -11.984375 C 11.71875 -11.960938 11.328125 -11.84375 11.015625 -11.625 C 10.710938 -11.414062 10.320312 -10.992188 9.84375 -10.359375 L 7.484375 -7.1875 L 10.828125 -1.921875 C 11.171875 -1.367188 11.484375 -0.96875 11.765625 -0.71875 C 12.046875 -0.476562 12.316406 -0.347656 12.578125 -0.328125 L 12.578125 0 L 6.84375 0 L 6.84375 -0.328125 C 7.269531 -0.328125 7.5625 -0.367188 7.71875 -0.453125 C 7.882812 -0.535156 7.96875 -0.679688 7.96875 -0.890625 C 7.96875 -1.035156 7.894531 -1.234375 7.75 -1.484375 C 7.613281 -1.742188 7.34375 -2.195312 6.9375 -2.84375 L 5.703125 -4.84375 L 3.734375 -2.203125 C 3.410156 -1.742188 3.25 -1.375 3.25 -1.09375 C 3.25 -0.582031 3.765625 -0.328125 4.796875 -0.328125 L 4.796875 0 L 0.28125 0 L 0.28125 -0.328125 C 0.789062 -0.328125 1.253906 -0.5 1.671875 -0.84375 C 2.085938 -1.195312 2.5625 -1.738281 3.09375 -2.46875 L 5.3125 -5.4375 L 2.171875 -10.34375 C 1.796875 -10.9375 1.476562 -11.359375 1.21875 -11.609375 C 0.957031 -11.859375 0.644531 -11.984375 0.28125 -11.984375 L 0.28125 -12.3125 L 6.203125 -12.3125 Z M 6.203125 -11.984375 "/></g></g></g><g fill="#000000" fill-opacity="1"><g transform="translate(641.445656, 59.622361)"><g><path d="M 5.96875 -11.984375 C 5.53125 -11.984375 5.222656 -11.941406 5.046875 -11.859375 C 4.878906 -11.773438 4.796875 -11.640625 4.796875 -11.453125 C 4.796875 -11.285156 4.875 -11.046875 5.03125 -10.734375 L 7.71875 -5.71875 L 10 -10.078125 C 10.25 -10.566406 10.375 -10.941406 10.375 -11.203125 C 10.375 -11.503906 10.25 -11.707031 10 -11.8125 C 9.75 -11.925781 9.410156 -11.984375 8.984375 -11.984375 L 8.984375 -12.3125 L 12.640625 -12.3125 L 12.640625 -11.984375 C 12.410156 -11.984375 12.207031 -11.9375 12.03125 -11.84375 C 11.863281 -11.757812 11.679688 -11.582031 11.484375 -11.3125 C 11.285156 -11.050781 11.039062 -10.648438 10.75 -10.109375 L 8.125 -5.078125 L 8.125 -1.84375 C 8.125 -1.363281 8.175781 -1.019531 8.28125 -0.8125 C 8.382812 -0.613281 8.554688 -0.484375 8.796875 -0.421875 C 9.035156 -0.367188 9.441406 -0.335938 10.015625 -0.328125 L 10.015625 0 L 3.34375 0 L 3.34375 -0.328125 C 3.863281 -0.335938 4.253906 -0.382812 4.515625 -0.46875 C 4.773438 -0.550781 4.960938 -0.695312 5.078125 -0.90625 C 5.191406 -1.113281 5.25 -1.429688 5.25 -1.859375 L 5.25 -4.5625 L 2.109375 -10.359375 C 1.859375 -10.828125 1.648438 -11.164062 1.484375 -11.375 C 1.328125 -11.59375 1.15625 -11.75 0.96875 -11.84375 C 0.789062 -11.9375 0.550781 -11.984375 0.25 -11.984375 L 0.25 -12.3125 L 5.96875 -12.3125 Z M 5.96875 -11.984375 "/></g></g></g><g fill="#000000" fill-opacity="1"><g transform="translate(654.330353, 59.622361)"><g><path d="M 4.265625 -0.65625 L 7.59375 -0.65625 C 8.78125 -0.65625 9.75 -0.957031 10.5 -1.5625 C 11.25 -2.164062 11.726562 -3.082031 11.9375 -4.3125 L 12.28125 -4.3125 L 11.90625 0 L 0.59375 0 L 8.015625 -11.65625 L 5.5 -11.65625 C 4.46875 -11.65625 3.65625 -11.421875 3.0625 -10.953125 C 2.476562 -10.484375 2.09375 -9.757812 1.90625 -8.78125 L 1.609375 -8.78125 L 1.90625 -12.3125 L 11.65625 -12.3125 Z M 4.265625 -0.65625 "/></g></g></g><g fill="#000000" fill-opacity="1"><g transform="translate(667.21505, 59.622361)"><g><path d="M 4.390625 -12.515625 C 5.054688 -12.515625 5.660156 -12.375 6.203125 -12.09375 C 6.753906 -11.820312 7.179688 -11.441406 7.484375 -10.953125 C 7.785156 -10.472656 7.9375 -9.9375 7.9375 -9.34375 C 7.9375 -8.363281 7.519531 -7.320312 6.6875 -6.21875 C 5.863281 -5.113281 4.675781 -3.84375 3.125 -2.40625 L 6.5 -2.40625 C 6.976562 -2.40625 7.351562 -2.503906 7.625 -2.703125 C 7.90625 -2.898438 8.097656 -3.1875 8.203125 -3.5625 L 8.546875 -3.5625 L 7.890625 0 L 0.359375 0 L 0.359375 -0.25 L 1.359375 -1.359375 C 2.148438 -2.242188 2.820312 -3.066406 3.375 -3.828125 C 3.8125 -4.453125 4.15625 -4.960938 4.40625 -5.359375 C 4.65625 -5.753906 4.863281 -6.179688 5.03125 -6.640625 C 5.195312 -7.109375 5.28125 -7.59375 5.28125 -8.09375 C 5.28125 -8.8125 5.070312 -9.394531 4.65625 -9.84375 C 4.25 -10.289062 3.722656 -10.515625 3.078125 -10.515625 C 2.585938 -10.515625 2.148438 -10.382812 1.765625 -10.125 C 1.378906 -9.863281 1.082031 -9.488281 0.875 -9 L 0.5625 -9.109375 C 1.164062 -11.378906 2.441406 -12.515625 4.390625 -12.515625 Z M 4.390625 -12.515625 "/></g></g></g><g fill="#000000" fill-opacity="1"><g transform="translate(676.175204, 59.622361)"><g><path d="M 7.234375 -11.984375 C 6.628906 -11.972656 6.1875 -11.941406 5.90625 -11.890625 C 5.632812 -11.835938 5.429688 -11.703125 5.296875 -11.484375 C 5.160156 -11.273438 5.09375 -10.925781 5.09375 -10.4375 L 5.09375 -1.65625 C 5.09375 -1.300781 5.175781 -1.046875 5.34375 -0.890625 C 5.519531 -0.734375 5.800781 -0.65625 6.1875 -0.65625 L 7.484375 -0.65625 C 8.492188 -0.65625 9.289062 -0.941406 9.875 -1.515625 C 10.46875 -2.097656 10.910156 -2.988281 11.203125 -4.1875 L 11.53125 -4.1875 L 11.09375 0 L 0.28125 0 L 0.28125 -0.328125 C 0.8125 -0.335938 1.207031 -0.378906 1.46875 -0.453125 C 1.726562 -0.535156 1.914062 -0.679688 2.03125 -0.890625 C 2.15625 -1.109375 2.21875 -1.4375 2.21875 -1.875 L 2.21875 -10.4375 C 2.21875 -10.925781 2.148438 -11.273438 2.015625 -11.484375 C 1.878906 -11.703125 1.6875 -11.835938 1.4375 -11.890625 C 1.195312 -11.941406 0.8125 -11.972656 0.28125 -11.984375 L 0.28125 -12.3125 L 7.234375 -12.3125 Z M 7.234375 -11.984375 "/></g></g></g><g fill="#000000" fill-opacity="1"><g transform="translate(688.128041, 59.622361)"><g><path d="M 2.28125 -2.453125 L 6.4375 -12.515625 L 6.609375 -12.515625 L 10.75 -2.421875 C 11.03125 -1.734375 11.300781 -1.210938 11.5625 -0.859375 C 11.832031 -0.503906 12.179688 -0.328125 12.609375 -0.328125 L 12.609375 0 L 6.859375 0 L 6.859375 -0.328125 C 7.429688 -0.335938 7.8125 -0.378906 8 -0.453125 C 8.195312 -0.535156 8.296875 -0.710938 8.296875 -0.984375 C 8.296875 -1.066406 8.273438 -1.160156 8.234375 -1.265625 C 8.191406 -1.378906 8.160156 -1.472656 8.140625 -1.546875 L 7.359375 -3.484375 L 3.421875 -3.484375 L 2.875 -2.125 C 2.695312 -1.789062 2.609375 -1.5 2.609375 -1.25 C 2.609375 -0.882812 2.742188 -0.640625 3.015625 -0.515625 C 3.296875 -0.390625 3.6875 -0.328125 4.1875 -0.328125 L 4.1875 0 L 0.25 0 L 0.25 -0.328125 C 0.65625 -0.359375 1.019531 -0.539062 1.34375 -0.875 C 1.664062 -1.207031 1.976562 -1.734375 2.28125 -2.453125 Z M 7.09375 -4.140625 L 5.390625 -8.265625 L 3.6875 -4.140625 Z M 7.09375 -4.140625 "/></g></g></g><g fill="#000000" fill-opacity="1"><g transform="translate(701.012738, 59.622361)"><g><path d="M 11 -9.296875 C 11 -8.578125 10.75 -7.972656 10.25 -7.484375 C 9.75 -6.992188 9.03125 -6.660156 8.09375 -6.484375 L 8.09375 -6.453125 C 9.144531 -6.296875 9.976562 -5.9375 10.59375 -5.375 C 11.21875 -4.8125 11.53125 -4.125 11.53125 -3.3125 C 11.53125 -2.625 11.320312 -2.023438 10.90625 -1.515625 C 10.488281 -1.015625 9.9375 -0.632812 9.25 -0.375 C 8.5625 -0.125 7.820312 0 7.03125 0 L 0.265625 0 L 0.265625 -0.328125 C 0.710938 -0.328125 1.046875 -0.359375 1.265625 -0.421875 C 1.492188 -0.484375 1.664062 -0.625 1.78125 -0.84375 C 1.894531 -1.0625 1.953125 -1.398438 1.953125 -1.859375 L 1.953125 -10.4375 C 1.953125 -10.863281 1.898438 -11.1875 1.796875 -11.40625 C 1.703125 -11.625 1.539062 -11.769531 1.3125 -11.84375 C 1.09375 -11.925781 0.78125 -11.972656 0.375 -11.984375 L 0.375 -12.3125 L 6.78125 -12.3125 C 7.425781 -12.3125 8.066406 -12.210938 8.703125 -12.015625 C 9.347656 -11.828125 9.890625 -11.507812 10.328125 -11.0625 C 10.773438 -10.613281 11 -10.023438 11 -9.296875 Z M 5.3125 -6.71875 C 6.289062 -6.71875 6.984375 -6.960938 7.390625 -7.453125 C 7.796875 -7.953125 8 -8.53125 8 -9.1875 C 8 -9.800781 7.816406 -10.363281 7.453125 -10.875 C 7.097656 -11.394531 6.5 -11.65625 5.65625 -11.65625 L 4.828125 -11.65625 L 4.828125 -6.71875 Z M 5.859375 -0.625 C 6.597656 -0.625 7.191406 -0.859375 7.640625 -1.328125 C 8.097656 -1.796875 8.328125 -2.414062 8.328125 -3.1875 C 8.328125 -4 8.078125 -4.679688 7.578125 -5.234375 C 7.078125 -5.785156 6.289062 -6.0625 5.21875 -6.0625 L 4.828125 -6.0625 L 4.828125 -1.828125 C 4.828125 -1.347656 4.910156 -1.023438 5.078125 -0.859375 C 5.242188 -0.703125 5.503906 -0.625 5.859375 -0.625 Z M 5.859375 -0.625 "/></g></g></g><path stroke-linecap="butt" transform="matrix(0.746681, -0.000000000000000463, 0.000000000000000463, 0.746681, 103.968286, 56.001102)" fill="none" stroke-linejoin="miter" d="M 0.000621551 1.499959 L 40.607384 1.499959 " stroke="#000000" stroke-width="3" stroke-opacity="1" stroke-miterlimit="4"/><path stroke-linecap="round" transform="matrix(0.746681, -0.000000000000000463, 0.000000000000000463, 0.746681, 103.968286, 56.001102)" fill="none" stroke-linejoin="round" d="M 34.606874 -2.999115 L 40.607384 1.499959 L 34.606874 5.999034 " stroke="#000000" stroke-width="3" stroke-opacity="1" stroke-miterlimit="4"/><path stroke-linecap="butt" transform="matrix(0.746681, -0.000000000000000463, 0.000000000000000463, 0.746681, 225.169007, 56.001102)" fill="none" stroke-linejoin="miter" d="M -0.001391 1.499959 L 40.605371 1.499959 " stroke="#000000" stroke-width="3" stroke-opacity="1" stroke-miterlimit="4"/><path stroke-linecap="round" transform="matrix(0.746681, -0.000000000000000463, 0.000000000000000463, 0.746681, 225.169007, 56.001102)" fill="none" stroke-linejoin="round" d="M 34.604861 -2.999115 L 40.605371 1.499959 L 34.604861 5.999034 " stroke="#000000" stroke-width="3" stroke-opacity="1" stroke-miterlimit="4"/><path stroke-linecap="butt" transform="matrix(0.746681, -0.000000000000000463, 0.000000000000000463, 0.746681, 400.067041, 57.121124)" fill="none" stroke-linejoin="miter" d="M -0.000849716 1.501394 L 40.605912 1.501394 " stroke="#000000" stroke-width="3" stroke-opacity="1" stroke-miterlimit="4"/><path stroke-linecap="round" transform="matrix(0.746681, -0.000000000000000463, 0.000000000000000463, 0.746681, 400.067041, 57.121124)" fill="none" stroke-linejoin="round" d="M 34.605403 -2.99768 L 40.605912 1.501394 L 34.605403 6.000469 " stroke="#000000" stroke-width="3" stroke-opacity="1" stroke-miterlimit="4"/><path stroke-linecap="butt" transform="matrix(0.746681, -0.000000000000000463, 0.000000000000000463, 0.746681, 574.218371, 57.121124)" fill="none" stroke-linejoin="miter" d="M 0.000507332 1.501394 L 40.607269 1.501394 " stroke="#000000" stroke-width="3" stroke-opacity="1" stroke-miterlimit="4"/><path stroke-linecap="round" transform="matrix(0.746681, -0.000000000000000463, 0.000000000000000463, 0.746681, 574.218371, 57.121124)" fill="none" stroke-linejoin="round" d="M 34.60676 -2.99768 L 40.607269 1.501394 L 34.60676 6.000469 " stroke="#000000" stroke-width="3" stroke-opacity="1" stroke-miterlimit="4"/></svg>